<svg xmlns="http://www.w3.org/2000/svg" width="57.409" height="57.544" viewBox="0 0 57.409 57.544">
  <g id="Group_49820" data-name="Group 49820" transform="translate(0 0)" opacity="0.7">
    <g id="Group_49766" data-name="Group 49766" transform="translate(0 0)">
      <path id="Path_73962" data-name="Path 73962" d="M28.532,0h.225c.02.153.159.2.26.271q5.506,4.065,11.017,8.123c.11.081.2.227.41.172,0-1.473.015-2.948-.01-4.423-.007-.427.091-.567.546-.563q4.518.033,9.036,0c.448,0,.552.124.551.559-.017,3.835-.006,7.67-.016,11.505a.849.849,0,0,0,.374.794c2.043,1.482,4.069,2.989,6.1,4.484.115.085.209.223.383.2v.112c-.581.78-1.175,1.551-1.737,2.345-.2.288-.352.3-.622.09a4.116,4.116,0,0,0-1.123-.747v.723q0,16.6.014,33.2c0,.57-.139.7-.7.7q-24.577-.025-49.155,0c-.559,0-.742-.1-.741-.712q.032-16.628.013-33.257a1.317,1.317,0,0,0-.073-.674c-.348.252-.684.458-.974.716-.31.276-.5.267-.743-.095a23.431,23.431,0,0,0-1.4-1.9c-.287-.347-.19-.495.127-.728Q13.8,10.96,27.281,1a5.571,5.571,0,0,0,1.25-1m.1,54.156q10.645,0,21.29.011c.5,0,.651-.105.65-.633q-.026-16.319,0-32.637a.959.959,0,0,0-.435-.88Q39.634,12.3,29.162,4.553a.728.728,0,0,0-1.051.02q-10.471,7.75-20.97,15.46a.908.908,0,0,0-.417.831q.014,16.347,0,32.693c0,.5.133.61.619.609q10.645-.025,21.29-.011M47.093,13.6c.048-.077.081-.1.082-.133,0-2.057,0-4.115.014-6.172,0-.291-.126-.335-.371-.332-.879.01-1.759.016-2.637,0-.306-.006-.375.108-.372.391.013,1.178,0,2.357.006,3.535,0,.147-.017.294.131.4q1.575,1.151,3.148,2.312" transform="translate(0 0.001)" fill="#fff"/>
      <path id="Path_73963" data-name="Path 73963" d="M85.74,182.163c-4.85,0-9.7.008-14.55-.012-.5,0-.64.12-.611.615.045.784,0,1.573.018,2.359.008.313-.082.424-.407.416-.861-.02-1.723-.016-2.584,0-.282,0-.428-.067-.388-.373a2.65,2.65,0,0,0,0-.337q0-12.781-.015-25.561c0-.608.178-.75.742-.713a20.811,20.811,0,0,0,2.19,0c.377-.015.466.115.463.474-.016,1.91.006,3.82-.018,5.73-.006.441.113.565.556.557,1.5-.028,3-.024,4.494-.007a5.026,5.026,0,0,1,4.929,6.177c-.119.527.011.57.471.569,7.528-.012,15.056,0,22.584-.022.562,0,.706.127.7.7-.028,4.082-.021,8.165-.006,12.247,0,.427-.087.59-.547.565a21.436,21.436,0,0,0-2.246,0c-.452.023-.627-.082-.6-.572.044-.765-.017-1.536.023-2.3.023-.441-.135-.517-.538-.516q-7.331.02-14.663.009m-.04-3.371c4.9,0,9.808-.006,14.712.01.421,0,.547-.106.527-.528a18.879,18.879,0,0,1,0-2.189c.036-.534-.109-.679-.662-.678q-14.516.029-29.032.014a2.211,2.211,0,0,1-.281,0c-.293-.038-.389.081-.382.377.018.8.033,1.611,0,2.414-.022.458.1.6.576.593,4.848-.019,9.7-.012,14.544-.012M73.314,168.679c-.766,0-1.533.019-2.3-.008-.356-.013-.442.109-.433.445q.034,1.232,0,2.466c-.01.356.081.482.46.477,1.494-.022,2.989,0,4.483-.011a1.689,1.689,0,1,0-.027-3.367c-.728-.006-1.457,0-2.186,0" transform="translate(-57.116 -134.749)" fill="#fff"/>
      <path id="Path_73964" data-name="Path 73964" d="M143.034,91.232c2.639,0,5.279.011,7.918-.011.429,0,.522.12.521.532q-.023,6.233,0,12.466c0,.381-.083.508-.488.507q-7.946-.021-15.891,0c-.4,0-.493-.118-.492-.5q.02-6.233,0-12.466c0-.478.172-.534.577-.532,2.62.015,5.241.008,7.861.008m-.018,10.113c1.534,0,3.068-.009,4.6.007.348,0,.486-.068.482-.455q-.03-2.918,0-5.837c0-.373-.11-.466-.471-.464q-4.6.02-9.2,0c-.324,0-.457.057-.454.425q.028,2.946,0,5.893c0,.349.1.442.443.438,1.534-.018,3.068-.008,4.6-.008" transform="translate(-114.391 -77.528)" fill="#fff"/>
    </g>
  </g>
</svg>
