<svg id="Group_50207" data-name="Group 50207" xmlns="http://www.w3.org/2000/svg" width="51.086" height="55.314" viewBox="0 0 51.086 55.314">
  <g id="Group_50208" data-name="Group 50208">
    <path id="Path_74488" data-name="Path 74488" d="M24.223,0a21.634,21.634,0,0,1,2.455.594,10.192,10.192,0,0,1,6.781,9.972q.011,11.018-.01,22.036a.874.874,0,0,0,.595.92,5.1,5.1,0,0,0,2.592.547c1.312-.059,2.628-.034,3.942-.034a2.106,2.106,0,0,1,2.348,2.322c0,1.247,0,1.246,1.268,1.247,1.116,0,2.232-.007,3.349,0a3.35,3.35,0,0,1,3.42,4.177,6.011,6.011,0,0,1-5.976,4.995q-1.431.013-2.862,0c-.278,0-.449.016-.517.367a1.078,1.078,0,0,1-1.107.925q-2.241.038-4.482,0a1.083,1.083,0,0,1-1.06-.857c-.1-.416-.3-.443-.636-.439-1.008.012-2.018.038-3.024-.007a5.847,5.847,0,0,1-4.945-2.905c-.1-.166-.209-.33-.334-.526L21.786,47.7c-.414.426-.815.865-1.242,1.278a.827.827,0,0,1-1.324-.007q-4.035-4.137-8.05-8.293a1.241,1.241,0,0,1-.1-1.719c.574-.954.574-.953-.487-1.345-.674-.249-1.349-.5-2.022-.75-1.163-.436-1.38-1.28-.569-2.207.094-.107.184-.217.281-.332-.167-.128-.284.012-.4.054a27.956,27.956,0,0,0-3.061,1.34,5.438,5.438,0,0,0-3.163,4.96c-.035,1.025-.006,2.052-.008,3.078a2.221,2.221,0,0,1-.028.483.751.751,0,0,1-.76.641.694.694,0,0,1-.792-.653c0-1.97-.292-3.963.383-5.889a7.031,7.031,0,0,1,3.7-4.093c.564-.278,1.132-.553,1.716-.785a.652.652,0,0,0,.452-.728Q6.291,21.6,6.3,10.478A10.089,10.089,0,0,1,11.134,1.54,9.767,9.767,0,0,1,15.056.109c.176-.026.35-.072.524-.109h2.053a7.431,7.431,0,0,0,2.079.133A9.924,9.924,0,0,0,22.17,0Zm4.511,16.237c0-.937-.01-2.215.006-3.492,0-.34-.069-.5-.446-.572a17.257,17.257,0,0,1-8.1-3.8.386.386,0,0,0-.6-.015,17.232,17.232,0,0,1-8.152,3.823c-.37.07-.4.241-.4.544.013,2.249,0,4.5.024,6.748a7.841,7.841,0,0,0,.815,3.593,9.752,9.752,0,0,0,5.063,4.483,6.23,6.23,0,0,0,3.867.649,10.816,10.816,0,0,0,2.875-1.048c2.528-1.385,4.405-3.3,4.9-6.259a38.942,38.942,0,0,0,.152-4.652m3.1-5.685h.018c-.032-.5-.025-1.011-.1-1.507A8.6,8.6,0,0,0,22.3,1.661a29.98,29.98,0,0,1-4.854,0A8.483,8.483,0,0,0,9.218,5.694a9.226,9.226,0,0,0-1.3,5.585c.012.3-.13.687.067.884s.477-.149.745-.166c.126-.008.25-.028.376-.039a.35.35,0,0,0,.358-.319A1.206,1.206,0,0,1,10.53,10.7c.493-.1.992-.174,1.48-.295a15.71,15.71,0,0,0,6.786-3.5c.856-.759,1.283-.739,2.17-.01.417.343.825.7,1.263,1.011a16.178,16.178,0,0,0,6.891,2.776c.423.069.884.18,1.016.6a.965.965,0,0,0,1.049.75.8.8,0,0,1,.3.111c.27.13.356.018.353-.247-.006-.45,0-.9,0-1.35m6.428,28.672H36.755c-2.626,0-5.253-.008-7.879,0a1.655,1.655,0,0,0-1.769,1.745,4.37,4.37,0,0,0,3.751,4.111,36.058,36.058,0,0,0,3.719.076c.241.008.287-.126.339-.321a1.14,1.14,0,0,1,1.182-.975q2.158-.032,4.317,0a1.12,1.12,0,0,1,1.187.968c.061.289.191.331.436.329,1.007-.009,2.016.022,3.022-.012a4.426,4.426,0,0,0,4.277-3.521c.318-1.533-.386-2.4-1.95-2.4q-4.56,0-9.12,0M19.9,38.442a7.268,7.268,0,0,0,1.538-.256.941.941,0,0,0,.724-.753q.695-2.631,1.457-5.245a1.456,1.456,0,0,0-.1-1.417,1.851,1.851,0,0,1-.293-1.081c0-.43-.136-.492-.542-.344a6.974,6.974,0,0,1-3.962.463,11.014,11.014,0,0,1-1.758-.509c-.272-.11-.4-.05-.391.265a2.4,2.4,0,0,1-.423,1.426.911.911,0,0,0-.088.856q.682,2.383,1.345,4.772c.433,1.55.561,1.659,2.17,1.8.107.01.215.013.324.02M7.92,25.712V26.2c0,1.98,0,3.961.008,5.941,0,.139-.165.494.221.383a7.947,7.947,0,0,0,2.382-.816,7.568,7.568,0,0,1,3.616-1.254c.176-.021.387,0,.5-.153a2.612,2.612,0,0,0,.319-1.66c.01-.389-.333-.433-.556-.58C11.573,26.188,9.7,23.715,9.49,20.2a2.087,2.087,0,0,0-.107-.9c-.155-.256-.565-.117-.847-.223a.989.989,0,0,1-.152-.055c-.379-.221-.473-.092-.47.317.015,2.124.007,4.249.007,6.373m23.919.044v-6.1c0-.758,0-.757-.752-.564a2.05,2.05,0,0,1-.425.077c-.281.011-.351.155-.354.417A9.828,9.828,0,0,1,30,22.04a10.185,10.185,0,0,1-4.738,6.051.824.824,0,0,0-.484.9c.032.213.048.428.067.642a.832.832,0,0,0,.9.841,5.235,5.235,0,0,1,2.773.788,10.854,10.854,0,0,0,2.8,1.187c.416.156.521.063.517-.375-.018-2.107-.008-4.213-.008-6.32m-13.652,19.7c-.4-1.439-.8-2.854-1.2-4.27-.8-2.873-1.6-5.748-2.416-8.618-.053-.189,0-.54-.367-.486a4.006,4.006,0,0,0-2.7,1.033c-.583.662-1.157,1.333-1.753,1.982-.249.271-.274.4.123.536.9.306,1.791.648,2.682.987a1.2,1.2,0,0,1,.658,1.972,5.936,5.936,0,0,1-.465.727c-.255.306-.174.5.087.766,1.656,1.68,3.292,3.379,4.938,5.069.108.111.187.266.414.3m3.476-.021a.6.6,0,0,0,.138-.079c1.179-1.212,2.354-2.429,3.537-3.637a.574.574,0,0,0,.173-.482,3.453,3.453,0,0,1,.8-2.506.44.44,0,0,0,.082-.477,1.164,1.164,0,0,1,.838-1.639c.873-.331,1.747-.66,2.628-.97.349-.123.48-.222.156-.551a12.014,12.014,0,0,1-1.279-1.46,3.957,3.957,0,0,0-2.905-1.538c-.373-.054-.531.033-.636.414-1.146,4.156-2.312,8.306-3.472,12.458-.041.149-.142.292-.058.468m-1.838-.153h.116q.727-2.584,1.454-5.169c.045-.16-.01-.245-.191-.2a7.027,7.027,0,0,1-2.891-.031l1.513,5.4m9.7-7.785c0,.036.009.072.014.109,1.222,0,2.445-.009,3.667.006.313,0,.394-.108.4-.406a5.547,5.547,0,0,1,.128-1.872.183.183,0,0,0-.126-.254q-1.038-.421-2.073-.848a1.223,1.223,0,0,0,.267.443,1.236,1.236,0,0,1-.573,2.18l-1.7.641m8.172-1.841A6.667,6.667,0,0,1,38.54,36.8a1.3,1.3,0,0,0,1.465.822c1.331-.06,1.318-.017,1.307-1.329,0-.477-.221-.641-.654-.64-.952,0-1.9,0-2.965,0M9.431,15.6H9.425c0-.485,0-.97,0-1.455,0-.659-.142-.738-.731-.416a1.424,1.424,0,0,0-.48.424A3.274,3.274,0,0,0,8.2,16.941a1.446,1.446,0,0,0,.819.575c.283.081.433.051.418-.3-.023-.538-.006-1.077-.006-1.616m20.921-.012h-.019c0,.4-.015.791.005,1.185.013.257-.152.635.107.744.323.135.653-.1.913-.337a1.272,1.272,0,0,0,.436-.784,5.993,5.993,0,0,0,0-1.665,1.425,1.425,0,0,0-1.084-1.141c-.258-.057-.366,0-.361.274.011.575,0,1.15,0,1.725m7.861,30.88c.43,0,.861-.022,1.288.006.394.026.569-.061.564-.515,0-.428-.163-.5-.537-.488-.859.024-1.719.031-2.577,0-.416-.016-.5.13-.508.517-.011.433.159.514.535.489.41-.028.823-.006,1.235-.006M37.169,37.6a5.244,5.244,0,0,0-1.95-1.727c0,.55.006,1.012,0,1.473,0,.233.132.257.313.256.5,0,1,0,1.64,0" transform="translate(0)" fill="#fff"/>
    <path id="Path_74489" data-name="Path 74489" d="M1.7,431.021a2.4,2.4,0,0,1-1.634-2.652c.058-1.546.007-3.1.017-4.643,0-.664.4-1.042.963-.925.523.109.655.5.655.972q0,2.376,0,4.752c0,.808.065.875.848.876,1.044,0,2.088-.014,3.132.008.358.008.452-.106.449-.455-.016-1.908-.007-3.816-.008-5.724a1.066,1.066,0,0,1,.189-.766.762.762,0,0,1,.823-.265.777.777,0,0,1,.594.753c.028.5.013,1.007.014,1.511,0,1.494.009,2.988-.006,4.482,0,.332.06.466.435.465q8.72-.018,17.441-.01c.086,0,.172-.014.313-.027-.641-1.321-.371-2.7-.41-4.057-.031-1.079-.02-2.16.007-3.239a.821.821,0,0,1,.843-.862.831.831,0,0,1,.76.887c.009.143,0,.288,0,.432q0,2.376,0,4.752c0,1.531.591,2.116,2.126,2.116h18.2c1.426,0,2.031-.605,2.034-2.034,0-1.62,0-3.24,0-4.86a4.006,4.006,0,0,1,.036-.591.737.737,0,0,1,.819-.69.728.728,0,0,1,.748.768c.013,2.087.131,4.181-.053,6.259a2.989,2.989,0,0,1-2.12,2.562l-.548.206Z" transform="translate(-0.054 -375.707)" fill="#fff"/>
    <path id="Path_74490" data-name="Path 74490" d="M150.986,206.132a4.628,4.628,0,0,1-3.744-1.675c-.4-.494-.394-.975-.021-1.293.388-.332.852-.288,1.246.243a3.381,3.381,0,0,0,4.955.012c.4-.535.852-.588,1.247-.27s.408.774.009,1.284a4.554,4.554,0,0,1-3.691,1.7" transform="translate(-131.068 -181.026)" fill="#fff"/>
    <path id="Path_74491" data-name="Path 74491" d="M174.931,153.207c0-.377-.017-.754,0-1.129a.784.784,0,0,1,1.563-.041c.041.445.034.895.034,1.343,0,.232.011.4.314.445a.741.741,0,0,1,.7.909c-.077.521-.454.69-.939.68-.215,0-.432.007-.645-.017a1.068,1.068,0,0,1-1.011-1.007c-.037-.391-.007-.788-.007-1.182h-.01" transform="translate(-156.027 -134.98)" fill="#fff"/>
    <path id="Path_74492" data-name="Path 74492" d="M222.177,134.078c0-.126-.005-.252,0-.378a.809.809,0,1,1,1.613-.037,7.605,7.605,0,0,1,0,.81.846.846,0,0,1-.792.921c-.48.012-.8-.355-.825-.938,0-.126,0-.252,0-.378" transform="translate(-198.173 -118.47)" fill="#fff"/>
    <path id="Path_74493" data-name="Path 74493" d="M132.626,134.124a2.278,2.278,0,0,1-.082.747.743.743,0,0,1-.787.53.72.72,0,0,1-.732-.664,6.98,6.98,0,0,1-.018-1.078.77.77,0,0,1,.756-.816.781.781,0,0,1,.835.742,4.911,4.911,0,0,1,.028.538" transform="translate(-116.842 -118.492)" fill="#fff"/>
  </g>
</svg>
