<svg xmlns="http://www.w3.org/2000/svg" width="45.627" height="57.304" viewBox="0 0 45.627 57.304">
  <g id="Group_50204" data-name="Group 50204" transform="translate(0.3 0.293)">
    <path id="Path_74485" data-name="Path 74485" d="M14.562,27.122l7.845,7.845,11.1-11.1" fill="none" stroke="#fff" stroke-linejoin="round" stroke-width="2"/>
    <g id="Group_50203" data-name="Group 50203">
      <g id="Group_50205" data-name="Group 50205">
        <path id="Path_74486" data-name="Path 74486" d="M34.75,49.438a29.26,29.26,0,0,1-11.789,6.495,1.418,1.418,0,0,1-.85.027C11.722,52.739,4.824,46,1.625,35.568A22.977,22.977,0,0,1,.7,28.806q0-4.216,0-8.434H.718V10.361c0-.779,0-.779.774-.863A38.882,38.882,0,0,0,22,.933c.415-.334.63-.291,1.014.015A38.8,38.8,0,0,0,43.865,9.507c.383.038.46.156.46.516,0,1.818,0,6.155,0,7.974V31.721" fill="none" stroke="#fff" stroke-linejoin="round" stroke-width="2"/>
      </g>
    </g>
  </g>
</svg>
