<svg xmlns="http://www.w3.org/2000/svg" xmlns:xlink="http://www.w3.org/1999/xlink" width="1280" height="880" viewBox="0 0 1280 880">
  <defs>
    <linearGradient id="linear-gradient" x1="0.417" y1="0.516" x2="0" y2="0.514" gradientUnits="objectBoundingBox">
      <stop offset="0" stop-color="#ffe3e7"/>
      <stop offset="1" stop-color="#ffa0af"/>
    </linearGradient>
    <clipPath id="clip-path">
      <rect id="Rectangle_14481" data-name="Rectangle 14481" width="27.846" height="33.79" fill="#fff"/>
    </clipPath>
    <clipPath id="clip-path-2">
      <rect id="Rectangle_14482" data-name="Rectangle 14482" width="30.857" height="30.932" fill="#fff"/>
    </clipPath>
    <clipPath id="clip-path-3">
      <rect id="Rectangle_14483" data-name="Rectangle 14483" width="33.067" height="33.215" fill="#fff"/>
    </clipPath>
  </defs>
  <g id="Group_50279" data-name="Group 50279" transform="translate(-46 -745)">
    <rect id="Rectangle_14473" data-name="Rectangle 14473" width="1280" height="880" rx="20" transform="translate(46 745)" fill="url(#linear-gradient)"/>
    <rect id="Rectangle_14490" data-name="Rectangle 14490" width="68" height="240" rx="12" transform="translate(554 891) rotate(-90)" fill="#222" opacity="0.16"/>
    <rect id="Rectangle_14489" data-name="Rectangle 14489" width="68" height="258" rx="12" transform="translate(1169 1028)" fill="#222" opacity="0.16"/>
    <rect id="Rectangle_14488" data-name="Rectangle 14488" width="68" height="258" rx="12" transform="translate(138 1028)" fill="#222" opacity="0.16"/>
    <circle id="Ellipse_274" data-name="Ellipse 274" cx="79.5" cy="79.5" r="79.5" transform="translate(979.89 1234.222)" fill="#fff"/>
    <g id="Intersection_4" data-name="Intersection 4" transform="translate(1088.865 1370.696) rotate(-90)" fill="#f40f34">
      <path d="M 58.09603881835938 49.74427795410156 C 52.5051155090332 49.74427795410156 46.92300796508789 49.15903091430664 41.50477600097656 48.00481414794922 C 36.22819137573242 46.88077163696289 31.05013084411621 45.20550918579102 26.11440849304199 43.02555465698242 C 21.26816177368164 40.88512420654297 16.61408424377441 38.2402458190918 12.28143882751465 35.16440200805664 C 8.114276885986328 32.20602035522461 4.21608829498291 28.82909965515137 0.6882734894752502 25.12194061279297 C 4.216087341308594 21.4148120880127 8.114261627197266 18.03793525695801 12.28143882751465 15.07960033416748 C 16.61406898498535 12.00380039215088 21.26814651489258 9.358969688415527 26.11439323425293 7.218569755554199 C 31.05011558532715 5.038661956787109 36.22819137573242 3.363431215286255 41.50477600097656 2.239415884017944 C 46.92300796508789 1.085231304168701 52.5051155090332 0.500000536441803 58.09603881835938 0.500000536441803 C 63.68697738647461 0.500000536441803 69.26908874511719 1.085231304168701 74.68731689453125 2.239415884017944 C 79.96389770507812 3.363431215286255 85.14197540283203 5.038661956787109 90.07768249511719 7.218569755554199 C 94.92393493652344 9.358969688415527 99.57802581787109 12.00380039215088 103.9106521606445 15.07960033416748 C 108.0778198242188 18.03793525695801 111.9760055541992 21.4148120880127 115.5038223266602 25.12194061279297 C 111.9760055541992 28.82909965515137 108.0778198242188 32.20602035522461 103.9106521606445 35.16440200805664 C 99.57801055908203 38.2402458190918 94.92393493652344 40.88512420654297 90.07768249511719 43.02555465698242 C 85.14196014404297 45.20550918579102 79.96389770507812 46.88077163696289 74.68731689453125 48.00481414794922 C 69.26906585693359 49.15903091430664 63.68696212768555 49.74427795410156 58.09603881835938 49.74427795410156 Z" stroke="none"/>
      <path d="M 58.09603881835938 1 C 52.54005432128906 1 46.99299621582031 1.581539154052734 41.60894775390625 2.728446960449219 C 36.36589813232422 3.845325469970703 31.22074890136719 5.509906768798828 26.31640625 7.675952911376953 C 21.50082397460938 9.802799224853516 16.87615966796875 12.430908203125 12.57086944580078 15.48730850219727 C 8.559341430664062 18.33514595031738 4.798751831054688 21.57320785522461 1.380485534667969 25.1219425201416 C 4.79876708984375 28.67071723937988 8.559341430664062 31.90881156921387 12.57086944580078 34.75669097900391 C 16.87617492675781 37.81312561035156 21.50083923339844 40.44129180908203 26.31640625 42.56816864013672 C 31.22076416015625 44.73427581787109 36.36591339111328 46.39889144897461 41.60896301269531 47.51578521728516 C 46.99301147460938 48.66272354125977 52.54006958007812 49.24427795410156 58.09603881835938 49.24427795410156 C 63.65202331542969 49.24427795410156 69.19908142089844 48.66272354125977 74.5831298828125 47.51578521728516 C 79.826171875 46.39889144897461 84.97132873535156 44.73427581787109 89.87568664550781 42.56816864013672 C 94.69123840332031 40.44129180908203 99.31590270996094 37.81312561035156 103.621208190918 34.75669097900391 C 107.6327209472656 31.90881156921387 111.393310546875 28.67071914672852 114.8115844726562 25.1219425201416 C 111.393310546875 21.57320976257324 107.6327362060547 18.33514595031738 103.621208190918 15.48730850219727 C 99.31591796875 12.430908203125 94.69125366210938 9.802799224853516 89.87568664550781 7.675952911376953 C 84.97134399414062 5.509906768798828 79.82618713378906 3.845325469970703 74.5831298828125 2.728446960449219 C 69.19908142089844 1.581539154052734 63.65202331542969 1 58.09603881835938 1 M 58.09603881835938 0 C 81.00119018554688 0 101.6486206054688 9.655876159667969 116.1920700073242 25.12193870544434 C 101.6486206054688 40.5881233215332 81.00119018554688 50.24427795410156 58.09603881835938 50.24427795410156 C 35.19091796875 50.24427795410156 14.54345703125 40.5881233215332 -7.62939453125e-06 25.12193870544434 C 14.54345703125 9.655876159667969 35.19091796875 0 58.09603881835938 0 Z" stroke="none" fill="#f8b6c0"/>
    </g>
    <g id="Group_50177" data-name="Group 50177" transform="translate(1099.663 1294.813)">
      <g id="Group_50178" data-name="Group 50178" transform="translate(0.404 0.404)">
        <path id="Path_74459" data-name="Path 74459" d="M27.524,11.335c0-1.118,0-3.784,0-4.9,0-.221-.047-.294-.283-.317A23.858,23.858,0,0,1,14.421.853c-.236-.189-.368-.215-.623-.01A23.9,23.9,0,0,1,1.187,6.11c-.476.052-.476.051-.476.53V12.8H.7q0,2.592,0,5.185a14.114,14.114,0,0,0,.569,4.158,17.988,17.988,0,0,0,12.6,12.538.881.881,0,0,0,.523-.017,17.984,17.984,0,0,0,7.248-3.994" transform="translate(-0.7 -0.701)" fill="none" stroke="#fff" stroke-linejoin="round" stroke-width="1.6"/>
        <path id="Path_74460" data-name="Path 74460" d="M22.267,13.668a9.841,9.841,0,1,1-13.442,3.6A9.842,9.842,0,0,1,22.267,13.668Z" transform="translate(-3.321 -5.187)" fill="none" stroke="#fff" stroke-width="1.6"/>
        <path id="Path_74461" data-name="Path 74461" d="M24.588,22.041s-3.114-1.979-4.833.164c-.674.892-.8,2.695,2.416,3.145,2.416.14,3.305,3.164.733,3.983a4.071,4.071,0,0,1-4.067-1.089" transform="translate(-7.685 -8.599)" fill="none" stroke="#fff" stroke-width="1.6"/>
        <line id="Line_184" data-name="Line 184" y2="11.204" transform="translate(14.027 11.171)" fill="none" stroke="#fff" stroke-width="1.6"/>
      </g>
    </g>
    <circle id="Ellipse_266" data-name="Ellipse 266" cx="79.5" cy="79.5" r="79.5" transform="translate(980 977)" fill="#fff"/>
    <circle id="Ellipse_271" data-name="Ellipse 271" cx="79.5" cy="79.5" r="79.5" transform="translate(814 1124)" fill="#fff"/>
    <g id="Intersection_2" data-name="Intersection 2" transform="translate(1088.975 1114.645) rotate(-90)" fill="#f40f34">
      <path d="M 58.09603881835938 49.74427795410156 C 52.5051155090332 49.74427795410156 46.92300796508789 49.15903091430664 41.50477600097656 48.00481414794922 C 36.22819137573242 46.88077163696289 31.05013084411621 45.20550918579102 26.11440849304199 43.02555465698242 C 21.26816177368164 40.88512420654297 16.61408424377441 38.2402458190918 12.28143882751465 35.16440200805664 C 8.114276885986328 32.20602035522461 4.21608829498291 28.82909965515137 0.6882734894752502 25.12194061279297 C 4.216087341308594 21.4148120880127 8.114261627197266 18.03793525695801 12.28143882751465 15.07960033416748 C 16.61406898498535 12.00380039215088 21.26814651489258 9.358969688415527 26.11439323425293 7.218569755554199 C 31.05011558532715 5.038661956787109 36.22819137573242 3.363431215286255 41.50477600097656 2.239415884017944 C 46.92300796508789 1.085231304168701 52.5051155090332 0.500000536441803 58.09603881835938 0.500000536441803 C 63.68697738647461 0.500000536441803 69.26908874511719 1.085231304168701 74.68731689453125 2.239415884017944 C 79.96389770507812 3.363431215286255 85.14197540283203 5.038661956787109 90.07768249511719 7.218569755554199 C 94.92393493652344 9.358969688415527 99.57802581787109 12.00380039215088 103.9106521606445 15.07960033416748 C 108.0778198242188 18.03793525695801 111.9760055541992 21.4148120880127 115.5038223266602 25.12194061279297 C 111.9760055541992 28.82909965515137 108.0778198242188 32.20602035522461 103.9106521606445 35.16440200805664 C 99.57801055908203 38.2402458190918 94.92393493652344 40.88512420654297 90.07768249511719 43.02555465698242 C 85.14196014404297 45.20550918579102 79.96389770507812 46.88077163696289 74.68731689453125 48.00481414794922 C 69.26906585693359 49.15903091430664 63.68696212768555 49.74427795410156 58.09603881835938 49.74427795410156 Z" stroke="none"/>
      <path d="M 58.09603881835938 1 C 52.54005432128906 1 46.99299621582031 1.581539154052734 41.60894775390625 2.728446960449219 C 36.36589813232422 3.845325469970703 31.22074890136719 5.509906768798828 26.31640625 7.675952911376953 C 21.50082397460938 9.802799224853516 16.87615966796875 12.430908203125 12.57086944580078 15.48730850219727 C 8.559341430664062 18.33514595031738 4.798751831054688 21.57320785522461 1.380485534667969 25.1219425201416 C 4.79876708984375 28.67071723937988 8.559341430664062 31.90881156921387 12.57086944580078 34.75669097900391 C 16.87617492675781 37.81312561035156 21.50083923339844 40.44129180908203 26.31640625 42.56816864013672 C 31.22076416015625 44.73427581787109 36.36591339111328 46.39889144897461 41.60896301269531 47.51578521728516 C 46.99301147460938 48.66272354125977 52.54006958007812 49.24427795410156 58.09603881835938 49.24427795410156 C 63.65202331542969 49.24427795410156 69.19908142089844 48.66272354125977 74.5831298828125 47.51578521728516 C 79.826171875 46.39889144897461 84.97132873535156 44.73427581787109 89.87568664550781 42.56816864013672 C 94.69123840332031 40.44129180908203 99.31590270996094 37.81312561035156 103.621208190918 34.75669097900391 C 107.6327209472656 31.90881156921387 111.393310546875 28.67071914672852 114.8115844726562 25.1219425201416 C 111.393310546875 21.57320976257324 107.6327362060547 18.33514595031738 103.621208190918 15.48730850219727 C 99.31591796875 12.430908203125 94.69125366210938 9.802799224853516 89.87568664550781 7.675952911376953 C 84.97134399414062 5.509906768798828 79.82618713378906 3.845325469970703 74.5831298828125 2.728446960449219 C 69.19908142089844 1.581539154052734 63.65202331542969 1 58.09603881835938 1 M 58.09603881835938 0 C 81.00119018554688 0 101.6486206054688 9.655876159667969 116.1920700073242 25.12193870544434 C 101.6486206054688 40.5881233215332 81.00119018554688 50.24427795410156 58.09603881835938 50.24427795410156 C 35.19091796875 50.24427795410156 14.54345703125 40.5881233215332 -7.62939453125e-06 25.12193870544434 C 14.54345703125 9.655876159667969 35.19091796875 0 58.09603881835938 0 Z" stroke="none" fill="#f8b6c0"/>
    </g>
    <g id="Intersection_3" data-name="Intersection 3" transform="translate(814.546 1261.625) rotate(-90)" fill="#f40f34">
      <path d="M 58.09603881835938 49.74427795410156 C 52.5051155090332 49.74427795410156 46.92300796508789 49.15903091430664 41.50477600097656 48.00481414794922 C 36.22819137573242 46.88077163696289 31.05013084411621 45.20550918579102 26.11440849304199 43.02555465698242 C 21.26816177368164 40.88512420654297 16.61408424377441 38.2402458190918 12.28143882751465 35.16440200805664 C 8.114276885986328 32.20602035522461 4.21608829498291 28.82909965515137 0.6882734894752502 25.12194061279297 C 4.216087341308594 21.4148120880127 8.114261627197266 18.03793525695801 12.28143882751465 15.07960033416748 C 16.61406898498535 12.00380039215088 21.26814651489258 9.358969688415527 26.11439323425293 7.218569755554199 C 31.05011558532715 5.038661956787109 36.22819137573242 3.363431215286255 41.50477600097656 2.239415884017944 C 46.92300796508789 1.085231304168701 52.5051155090332 0.500000536441803 58.09603881835938 0.500000536441803 C 63.68697738647461 0.500000536441803 69.26908874511719 1.085231304168701 74.68731689453125 2.239415884017944 C 79.96389770507812 3.363431215286255 85.14197540283203 5.038661956787109 90.07768249511719 7.218569755554199 C 94.92393493652344 9.358969688415527 99.57802581787109 12.00380039215088 103.9106521606445 15.07960033416748 C 108.0778198242188 18.03793525695801 111.9760055541992 21.4148120880127 115.5038223266602 25.12194061279297 C 111.9760055541992 28.82909965515137 108.0778198242188 32.20602035522461 103.9106521606445 35.16440200805664 C 99.57801055908203 38.2402458190918 94.92393493652344 40.88512420654297 90.07768249511719 43.02555465698242 C 85.14196014404297 45.20550918579102 79.96389770507812 46.88077163696289 74.68731689453125 48.00481414794922 C 69.26906585693359 49.15903091430664 63.68696212768555 49.74427795410156 58.09603881835938 49.74427795410156 Z" stroke="none"/>
      <path d="M 58.09603881835938 1 C 52.54005432128906 1 46.99299621582031 1.581539154052734 41.60894775390625 2.728446960449219 C 36.36589813232422 3.845325469970703 31.22074890136719 5.509906768798828 26.31640625 7.675952911376953 C 21.50082397460938 9.802799224853516 16.87615966796875 12.430908203125 12.57086944580078 15.48730850219727 C 8.559341430664062 18.33514595031738 4.798751831054688 21.57320785522461 1.380485534667969 25.1219425201416 C 4.79876708984375 28.67071723937988 8.559341430664062 31.90881156921387 12.57086944580078 34.75669097900391 C 16.87617492675781 37.81312561035156 21.50083923339844 40.44129180908203 26.31640625 42.56816864013672 C 31.22076416015625 44.73427581787109 36.36591339111328 46.39889144897461 41.60896301269531 47.51578521728516 C 46.99301147460938 48.66272354125977 52.54006958007812 49.24427795410156 58.09603881835938 49.24427795410156 C 63.65202331542969 49.24427795410156 69.19908142089844 48.66272354125977 74.5831298828125 47.51578521728516 C 79.826171875 46.39889144897461 84.97132873535156 44.73427581787109 89.87568664550781 42.56816864013672 C 94.69123840332031 40.44129180908203 99.31590270996094 37.81312561035156 103.621208190918 34.75669097900391 C 107.6327209472656 31.90881156921387 111.393310546875 28.67071914672852 114.8115844726562 25.1219425201416 C 111.393310546875 21.57320976257324 107.6327362060547 18.33514595031738 103.621208190918 15.48730850219727 C 99.31591796875 12.430908203125 94.69125366210938 9.802799224853516 89.87568664550781 7.675952911376953 C 84.97134399414062 5.509906768798828 79.82618713378906 3.845325469970703 74.5831298828125 2.728446960449219 C 69.19908142089844 1.581539154052734 63.65202331542969 1 58.09603881835938 1 M 58.09603881835938 0 C 81.00119018554688 0 101.6486206054688 9.655876159667969 116.1920700073242 25.12193870544434 C 101.6486206054688 40.5881233215332 81.00119018554688 50.24427795410156 58.09603881835938 50.24427795410156 C 35.19091796875 50.24427795410156 14.54345703125 40.5881233215332 -7.62939453125e-06 25.12193870544434 C 14.54345703125 9.655876159667969 35.19091796875 0 58.09603881835938 0 Z" stroke="none" fill="#f8b6c0"/>
    </g>
    <circle id="Ellipse_265" data-name="Ellipse 265" cx="79.5" cy="79.5" r="79.5" transform="translate(817 908)" fill="#fff"/>
    <g id="Intersection_1" data-name="Intersection 1" transform="translate(817 1045.832) rotate(-90)" fill="#f40f34">
      <path d="M 58.09603881835938 49.74427795410156 C 52.5051155090332 49.74427795410156 46.92300796508789 49.15903091430664 41.50477600097656 48.00481414794922 C 36.22819137573242 46.88077163696289 31.05013084411621 45.20550918579102 26.11440849304199 43.02555465698242 C 21.26816177368164 40.88512420654297 16.61408424377441 38.2402458190918 12.28143882751465 35.16440200805664 C 8.114276885986328 32.20602035522461 4.21608829498291 28.82909965515137 0.6882734894752502 25.12194061279297 C 4.216087341308594 21.4148120880127 8.114261627197266 18.03793525695801 12.28143882751465 15.07960033416748 C 16.61406898498535 12.00380039215088 21.26814651489258 9.358969688415527 26.11439323425293 7.218569755554199 C 31.05011558532715 5.038661956787109 36.22819137573242 3.363431215286255 41.50477600097656 2.239415884017944 C 46.92300796508789 1.085231304168701 52.5051155090332 0.500000536441803 58.09603881835938 0.500000536441803 C 63.68697738647461 0.500000536441803 69.26908874511719 1.085231304168701 74.68731689453125 2.239415884017944 C 79.96389770507812 3.363431215286255 85.14197540283203 5.038661956787109 90.07768249511719 7.218569755554199 C 94.92393493652344 9.358969688415527 99.57802581787109 12.00380039215088 103.9106521606445 15.07960033416748 C 108.0778198242188 18.03793525695801 111.9760055541992 21.4148120880127 115.5038223266602 25.12194061279297 C 111.9760055541992 28.82909965515137 108.0778198242188 32.20602035522461 103.9106521606445 35.16440200805664 C 99.57801055908203 38.2402458190918 94.92393493652344 40.88512420654297 90.07768249511719 43.02555465698242 C 85.14196014404297 45.20550918579102 79.96389770507812 46.88077163696289 74.68731689453125 48.00481414794922 C 69.26906585693359 49.15903091430664 63.68696212768555 49.74427795410156 58.09603881835938 49.74427795410156 Z" stroke="none"/>
      <path d="M 58.09603881835938 1 C 52.54005432128906 1 46.99299621582031 1.581539154052734 41.60894775390625 2.728446960449219 C 36.36589813232422 3.845325469970703 31.22074890136719 5.509906768798828 26.31640625 7.675952911376953 C 21.50082397460938 9.802799224853516 16.87615966796875 12.430908203125 12.57086944580078 15.48730850219727 C 8.559341430664062 18.33514595031738 4.798751831054688 21.57320785522461 1.380485534667969 25.1219425201416 C 4.79876708984375 28.67071723937988 8.559341430664062 31.90881156921387 12.57086944580078 34.75669097900391 C 16.87617492675781 37.81312561035156 21.50083923339844 40.44129180908203 26.31640625 42.56816864013672 C 31.22076416015625 44.73427581787109 36.36591339111328 46.39889144897461 41.60896301269531 47.51578521728516 C 46.99301147460938 48.66272354125977 52.54006958007812 49.24427795410156 58.09603881835938 49.24427795410156 C 63.65202331542969 49.24427795410156 69.19908142089844 48.66272354125977 74.5831298828125 47.51578521728516 C 79.826171875 46.39889144897461 84.97132873535156 44.73427581787109 89.87568664550781 42.56816864013672 C 94.69123840332031 40.44129180908203 99.31590270996094 37.81312561035156 103.621208190918 34.75669097900391 C 107.6327209472656 31.90881156921387 111.393310546875 28.67071914672852 114.8115844726562 25.1219425201416 C 111.393310546875 21.57320976257324 107.6327362060547 18.33514595031738 103.621208190918 15.48730850219727 C 99.31591796875 12.430908203125 94.69125366210938 9.802799224853516 89.87568664550781 7.675952911376953 C 84.97134399414062 5.509906768798828 79.82618713378906 3.845325469970703 74.5831298828125 2.728446960449219 C 69.19908142089844 1.581539154052734 63.65202331542969 1 58.09603881835938 1 M 58.09603881835938 0 C 81.00119018554688 0 101.6486206054688 9.655876159667969 116.1920700073242 25.12193870544434 C 101.6486206054688 40.5881233215332 81.00119018554688 50.24427795410156 58.09603881835938 50.24427795410156 C 35.19091796875 50.24427795410156 14.54345703125 40.5881233215332 -7.62939453125e-06 25.12193870544434 C 14.54345703125 9.655876159667969 35.19091796875 0 58.09603881835938 0 Z" stroke="none" fill="#f8b6c0"/>
    </g>
    <path id="Path_74508" data-name="Path 74508" d="M-163.34,1015h-17.994" transform="translate(1690.5 1072.334) rotate(90)" fill="none" stroke="#363636" stroke-width="2"/>
    <g id="Rectangle_14479" data-name="Rectangle 14479" transform="translate(564 908)" fill="#fff0f3" stroke="#676767" stroke-width="1.4" stroke-dasharray="4 4">
      <rect width="220" height="499" rx="8" stroke="none"/>
      <rect x="0.7" y="0.7" width="218.6" height="497.6" rx="7.3" fill="none"/>
    </g>
    <rect id="Rectangle_14478" data-name="Rectangle 14478" width="232" height="60" rx="8" transform="translate(558 827)" fill="#222"/>
    <rect id="Rectangle_14472" data-name="Rectangle 14472" width="254" height="80" rx="10" transform="translate(261 907)" fill="#fff" opacity="0.8"/>
    <rect id="Rectangle_14474" data-name="Rectangle 14474" width="254" height="80" rx="10" transform="translate(260 1002)" fill="#fff" opacity="0.8"/>
    <rect id="Rectangle_14484" data-name="Rectangle 14484" width="879" height="120" rx="10" transform="translate(260 1431)" fill="#f40f34" opacity="0.8"/>
    <rect id="Rectangle_14476" data-name="Rectangle 14476" width="254" height="80" rx="10" transform="translate(259 1232)" fill="#fff" opacity="0.8"/>
    <rect id="Rectangle_14477" data-name="Rectangle 14477" width="254" height="80" rx="10" transform="translate(260 1327)" fill="#fff" opacity="0.8"/>
    <rect id="Rectangle_14475" data-name="Rectangle 14475" width="254" height="120" rx="10" transform="translate(260 1097)" fill="#fff" opacity="0.8"/>
    <text id="Labour_markets_are_volatile_uncertain_complex_and_ambiguous" data-name="Labour markets are volatile, uncertain, complex, and ambiguous" transform="translate(297 915)" fill="#222" font-size="18" font-family="RobotoCondensed-Regular, Roboto Condensed" letter-spacing="0.004em"><tspan x="0" y="19">Labour markets are volatile, </tspan><tspan x="0" y="39">uncertain, complex, and </tspan><tspan x="0" y="59">ambiguous</tspan></text>
    <text id="Inefficient_and_uncapacitated_systems" data-name="Inefficient and uncapacitated systems" transform="translate(297 1019)" fill="#222" font-size="18" font-family="RobotoCondensed-Regular, Roboto Condensed" letter-spacing="0.004em"><tspan x="0" y="19">Inefficient and </tspan><tspan x="0" y="39">uncapacitated systems</tspan></text>
    <text id="Business_wellbeing_is_prioritised_over_worker_wellbeing_making_both_the_workers_and_businesses_vulnerable_" data-name="Business wellbeing is prioritised over worker wellbeing making both the workers and businesses vulnerable " transform="translate(297 1104)" fill="#222" font-size="18" font-family="RobotoCondensed-Regular, Roboto Condensed" letter-spacing="0.004em"><tspan x="0" y="19">Business wellbeing is </tspan><tspan x="0" y="39">prioritised over worker </tspan><tspan x="0" y="59">wellbeing making both the </tspan><tspan x="0" y="79">workers and businesses </tspan><tspan x="0" y="99">vulnerable </tspan></text>
    <text id="Rising_climate_health_occupational_risks" data-name="Rising climate, health &amp; occupational risks" transform="translate(297 1249)" fill="#222" font-size="18" font-family="RobotoCondensed-Regular, Roboto Condensed" letter-spacing="0.004em"><tspan x="0" y="19">Rising climate, health &amp; </tspan><tspan x="0" y="39">occupational risks</tspan></text>
    <text id="Low_wages_and_no_social_security_or_coverage" data-name="Low wages and no social security or coverage" transform="translate(297 1345)" fill="#222" font-size="18" font-family="RobotoCondensed-Regular, Roboto Condensed" letter-spacing="0.004em"><tspan x="0" y="19">Low wages and no social </tspan><tspan x="0" y="39">security or coverage</tspan></text>
    <rect id="Rectangle_14471" data-name="Rectangle 14471" width="60" height="250" rx="8" transform="translate(142 1032)" fill="#222"/>
    <rect id="Rectangle_14480" data-name="Rectangle 14480" width="60" height="250" rx="8" transform="translate(1173 1032)" fill="#222"/>
    <text id="Systemic_Issues" data-name="Systemic Issues" transform="translate(181 1157) rotate(-90)" fill="#fff" font-size="22" font-family="RobotoCondensed-Regular, Roboto Condensed" letter-spacing="0.004em"><tspan x="-80" y="0">SYSTEMIC ISSUES</tspan></text>
    <text id="This_leads_to" data-name="This leads to" transform="translate(674 865.259)" fill="#fff" font-size="22" font-family="RobotoCondensed-Regular, Roboto Condensed" letter-spacing="0.004em"><tspan x="-67" y="0">THIS LEADS TO</tspan></text>
    <text id="This_has_resulted_in:" data-name="This has resulted in:" transform="translate(683 1469.5)" fill="#fff" font-size="22" font-family="RobotoCondensed-Regular, Roboto Condensed" letter-spacing="0.004em"><tspan x="-104" y="0">THIS HAS RESULTED IN:</tspan></text>
    <circle id="Ellipse_259" data-name="Ellipse 259" cx="24" cy="24" r="24" transform="translate(237 1018)" fill="#f40f34"/>
    <circle id="Ellipse_261" data-name="Ellipse 261" cx="24" cy="24" r="24" transform="translate(237 1248)" fill="#f40f34"/>
    <circle id="Ellipse_262" data-name="Ellipse 262" cx="24" cy="24" r="24" transform="translate(237 1343)" fill="#f40f34"/>
    <circle id="Ellipse_260" data-name="Ellipse 260" cx="24" cy="24" r="24" transform="translate(237 1133)" fill="#f40f34"/>
    <text id="Poor_health_safety_security_productivity_leading_to_poor_livelihood_opportunities_low_self-esteem_absenteeism_high_attrition_and_turnover_which_discourages_investment_in_them." data-name="Poor health, safety, security &amp; productivity leading to poor livelihood opportunities, low self-esteem, absenteeism, high attrition and turnover which discourages investment in them." transform="translate(574 986)" fill="#222" font-size="18" font-family="RobotoCondensed-Regular, Roboto Condensed" letter-spacing="0.004em"><tspan x="-68" y="19">Poor health, safety, </tspan><tspan x="-79" y="39">security &amp; productivity </tspan><tspan x="-90" y="59">leading to poor livelihood </tspan><tspan x="-81" y="79">opportunities, low self-</tspan><tspan x="-95" y="99">esteem, absenteeism, high </tspan><tspan x="-75" y="119">attrition and turnover </tspan><tspan x="-66" y="139">which discourages </tspan><tspan x="-70" y="159">investment in them.</tspan></text>
    <text id="Threatening_the_lives_livelihoods_of_workers_experiencing_precarious_working_conditions_poverty_low_wages_illness_discrimination_violence." data-name="Threatening the lives &amp; livelihoods of workers experiencing precarious working conditions, poverty, low wages, illness, discrimination 
&amp; violence." transform="translate(589 1240)" fill="#222" font-size="18" font-family="RobotoCondensed-Regular, Roboto Condensed" letter-spacing="0.004em"><tspan x="-81" y="19">Threatening the lives &amp; </tspan><tspan x="-78" y="39">livelihoods of workers </tspan><tspan x="-85" y="59">experiencing precarious </tspan><tspan x="-69" y="79">working conditions, </tspan><tspan x="-69" y="99">poverty, low wages, </tspan><tspan x="-78" y="119">illness, discrimination </tspan><tspan x="-39" y="139">&amp; violence.</tspan></text>
    <text id="Improved_lives_and_livelihoods_of_the_workforce_Improved_wellbeing_outcomes_for_the_workforce_and_businesses_both" data-name="Improved lives and livelihoods of the workforce 
Improved wellbeing outcomes for the workforce and businesses both" transform="translate(387 1484)" fill="#fff" font-size="18" font-family="RobotoCondensed-Regular, Roboto Condensed" letter-spacing="0.004em"><tspan x="-168" y="19">Improved lives and livelihoods of the workforce </tspan><tspan x="-246" y="39">Improved wellbeing outcomes for the workforce and businesses both</tspan></text>
    <path id="Path_74502" data-name="Path 74502" d="M191,1038H401" transform="translate(370 134)" fill="none" stroke="#707070" stroke-width="1.4" opacity="0.6"/>
    <path id="Path_74503" data-name="Path 74503" d="M178.467,741.487l9.237,6.7-9.237,6.7Z" transform="translate(364.724 108.81)" fill="#222"/>
    <path id="Path_74555" data-name="Path 74555" d="M187.7,741.487l-9.237,6.7,9.237,6.7Z" transform="translate(962.753 736.249)" fill="#222"/>
    <path id="Path_74509" data-name="Path 74509" d="M178.467,741.487l9.237,6.7-9.237,6.7Z" transform="translate(1423.894 720.297) rotate(90)" fill="#222"/>
    <path id="Path_74504" data-name="Path 74504" d="M-156,815h-10.594v420h10.8" transform="translate(393 132)" fill="none" stroke="#4a4a4a" stroke-width="1.4" stroke-dasharray="4 4"/>
    <path id="Path_74505" data-name="Path 74505" d="M-157,1015h-24.334" transform="translate(393 142)" fill="none" stroke="#4a4a4a" stroke-width="1.4" stroke-dasharray="4 4"/>
    <path id="Path_74506" data-name="Path 74506" d="M-171.74,1015h-9.594" transform="translate(407.74 26)" fill="none" stroke="#4a4a4a" stroke-width="1.4" stroke-dasharray="4 4"/>
    <path id="Path_74507" data-name="Path 74507" d="M-171.74,1015h-9.594" transform="translate(407.74 257)" fill="none" stroke="#4a4a4a" stroke-width="1.4" stroke-dasharray="4 4"/>
    <text id="Our_interventions_work_on" data-name="Our interventions
work on" transform="translate(1206 1157) rotate(90)" fill="#fff" font-size="24" font-family="RobotoCondensed-Regular, Roboto Condensed" letter-spacing="0.004em"><tspan x="-81" y="0">Our interventions</tspan><tspan x="-37" y="24">work on</tspan></text>
    <text id="Improving_health_outcomes" data-name="Improving 
health 
outcomes" transform="translate(918 975)" fill="#222" font-size="18" font-family="RobotoCondensed-Regular, Roboto Condensed" letter-spacing="0.004em"><tspan x="-37" y="0">Improving </tspan><tspan x="-24" y="20">health </tspan><tspan x="-35" y="40">outcomes</tspan></text>
    <text id="Creating_safe_work_environment" data-name="Creating safe work environment" transform="translate(998 1026)" fill="#222" font-size="18" font-family="RobotoCondensed-Regular, Roboto Condensed" letter-spacing="0.004em"><tspan x="-30" y="19">Creating </tspan><tspan x="-34" y="39">safe work </tspan><tspan x="-44" y="59">environment</tspan></text>
    <text id="Leadership_and_Agency_Building" data-name="Leadership and Agency Building" transform="translate(864 1174)" fill="#222" font-size="18" font-family="RobotoCondensed-Regular, Roboto Condensed" letter-spacing="0.004em"><tspan x="-39" y="19">Leadership </tspan><tspan x="-41" y="39">and Agency </tspan><tspan x="-28" y="59">Building</tspan></text>
    <text id="Ensuring_Financial_and_Social_Security" data-name="Ensuring Financial and Social Security" transform="translate(999.89 1273.222)" fill="#222" font-size="18" font-family="RobotoCondensed-Regular, Roboto Condensed" letter-spacing="0.004em"><tspan x="-31" y="19">Ensuring </tspan><tspan x="-32" y="39">Financial </tspan><tspan x="-37" y="59">and Social </tspan><tspan x="-28" y="79">Security</tspan></text>
    <g id="Group_50171" data-name="Group 50171" transform="translate(1096.106 1037)">
      <g id="Group_50172" data-name="Group 50172" transform="translate(1 1)">
        <circle id="Ellipse_252" data-name="Ellipse 252" cx="3.42" cy="3.42" r="3.42" transform="translate(11.559 11.731)" fill="none" stroke="#fff" stroke-width="1.6"/>
        <path id="Path_74451" data-name="Path 74451" d="M12.161,40.688V35.159a3.4,3.4,0,0,1,3.4-3.4h7.687a3.4,3.4,0,0,1,3.4,3.4v5.529" transform="translate(-4.424 -10.437)" fill="none" stroke="#fff" stroke-width="1.6"/>
        <path id="Path_74452" data-name="Path 74452" d="M1,18.376V13.412a.828.828,0,0,1,.828-.828H4.8a11.471,11.471,0,0,1,.91-2.192l-2.105-2.1a.828.828,0,0,1,0-1.17L7.118,3.607a.828.828,0,0,1,1.17,0l2.1,2.1a11.548,11.548,0,0,1,2.193-.91V1.827A.827.827,0,0,1,13.412,1h4.965a.827.827,0,0,1,.828.827V4.8a11.56,11.56,0,0,1,2.192.91l2.1-2.1a.828.828,0,0,1,1.17,0l3.512,3.511a.828.828,0,0,1,0,1.17l-2.1,2.1a11.558,11.558,0,0,1,.909,2.192h2.974a.827.827,0,0,1,.827.828v4.965M24.255,16.8A8.517,8.517,0,0,0,16.3,8.213a8.362,8.362,0,0,0-8.765,8.352" transform="translate(-1 -1)" fill="none" stroke="#fff" stroke-width="1.6"/>
        <line id="Line_178" data-name="Line 178" y2="8.953" transform="translate(18.822 21.323)" fill="none" stroke="#fff" stroke-width="1.6"/>
        <line id="Line_179" data-name="Line 179" y2="8.953" transform="translate(11.885 21.323)" fill="none" stroke="#fff" stroke-width="1.6"/>
        <line id="Line_180" data-name="Line 180" x2="21.654" transform="translate(4.059 30.181)" fill="none" stroke="#fff" stroke-width="1.6"/>
      </g>
    </g>
    <g id="Group_50168" data-name="Group 50168" transform="translate(825.897 971.51)">
      <g id="Group_50169" data-name="Group 50169" transform="translate(0.694 0.694)">
        <path id="Path_74449" data-name="Path 74449" d="M32.063,16.532A15.532,15.532,0,1,1,16.531,1,15.532,15.532,0,0,1,32.063,16.532Z" transform="translate(-1 -1)" fill="none" stroke="#fff" stroke-width="1.6"/>
        <path id="Path_74450" data-name="Path 74450" d="M29.367,17.968H23.939V12.54h-5.97v5.428H12.54v5.97h5.428v5.428h5.97V23.939h5.428Z" transform="translate(-5.422 -5.422)" fill="none" stroke="#fff" stroke-width="1.6"/>
      </g>
    </g>
    <g id="Group_50174" data-name="Group 50174" transform="translate(823.252 1187.917)">
      <g id="Group_50175" data-name="Group 50175" transform="translate(0.7 0)">
        <path id="Path_74453" data-name="Path 74453" d="M19.079,10.429a3.66,3.66,0,1,1-3.667,3.654A3.66,3.66,0,0,1,19.079,10.429Z" transform="translate(-2.991 -1.624)" fill="none" stroke="#fff" stroke-width="1.6"/>
        <path id="Path_74454" data-name="Path 74454" d="M25.591,28.859v-2.12a5.072,5.072,0,0,0-5.063-5.083h0l-4.7-.008a5.074,5.074,0,0,0-5.083,5.065h0v2.231" transform="translate(-2.264 -3.371)" fill="none" stroke="#fff" stroke-width="1.6"/>
        <path id="Path_74455" data-name="Path 74455" d="M7.825,11.093a3.128,3.128,0,1,1-3.134,3.123A3.128,3.128,0,0,1,7.825,11.093Z" transform="translate(-1.322 -1.727)" fill="none" stroke="#fff" stroke-width="1.6"/>
        <path id="Path_74456" data-name="Path 74456" d="M9.063,20.688h0l-4.018-.007A4.336,4.336,0,0,0,.7,25.009h0v.463" transform="translate(-0.7 -3.221)" fill="none" stroke="#fff" stroke-width="1.6"/>
        <path id="Path_74457" data-name="Path 74457" d="M30.132,10.872a3.128,3.128,0,1,0,3.134,3.123A3.128,3.128,0,0,0,30.132,10.872Z" transform="translate(-4.798 -1.693)" fill="none" stroke="#fff" stroke-width="1.6"/>
        <path id="Path_74458" data-name="Path 74458" d="M28.505,20.468h0l4.018-.007a4.336,4.336,0,0,1,4.344,4.328h0v.463" transform="translate(-5.031 -3.186)" fill="none" stroke="#fff" stroke-width="1.6"/>
        <line id="Line_181" data-name="Line 181" y1="5.156" transform="translate(15.744)" fill="none" stroke="#fff" stroke-width="1.6"/>
        <line id="Line_182" data-name="Line 182" y1="4.746" x2="2.014" transform="translate(19.251 0.706)" fill="none" stroke="#fff" stroke-width="1.6"/>
        <line id="Line_183" data-name="Line 183" x1="2.582" y1="4.463" transform="translate(10.291 1.249)" fill="none" stroke="#fff" stroke-width="1.6"/>
      </g>
    </g>
    <path id="Path_74510" data-name="Path 74510" d="M181.017,855.5s62.186,4.87,59.64-58.8c-.239.424-48.346,0-48.346,0s-10.966-.513-11.294,9.92S181.017,855.5,181.017,855.5Z" transform="translate(383.129 111)" fill="#222"/>
    <path id="Path_74511" data-name="Path 74511" d="M240.587,855.5s-62.186,4.87-59.64-58.8c.239.424,48.345,0,48.345,0s10.966-.513,11.294,9.92S240.587,855.5,240.587,855.5Z" transform="translate(543.268 374.862)" fill="#222"/>
    <path id="Path_74512" data-name="Path 74512" d="M-210.5,916V769.1s-1.223-24.313,23.664-24.313c.954-.547,355.073,0,355.073,0" transform="translate(383 112)" fill="none" stroke="#080808" stroke-width="3"/>
    <path id="Path_74513" data-name="Path 74513" d="M184.227,910V769.1s1.223-24.313-23.664-24.313c-.954-.547-381.073,0-381.073,0" transform="translate(1018.51 112)" fill="none" stroke="#080808" stroke-width="3"/>
    <path id="Path_74514" data-name="Path 74514" d="M178.467,741.487l9.237,6.7-9.237,6.7Z" transform="translate(1950.487 838.749) rotate(90)" fill="#222"/>
    <g id="Group_50257" data-name="Group 50257" transform="translate(743.216 1181.022)">
      <g id="Group_50256" data-name="Group 50256" clip-path="url(#clip-path)">
        <path id="Path_74515" data-name="Path 74515" d="M47.915,127.82a13,13,0,0,1-5.4-2.229,9.53,9.53,0,0,1-3.976-6.235,4.452,4.452,0,0,1,2.5-4.894,14.806,14.806,0,0,1,5.715-1.309c.283-.026.514-.006.482.375-.024.293.078.615-.4.677-.891.115-1.782.255-2.66.442a7.529,7.529,0,0,0-2.948,1.194c-1.092.8-1.1,1.738,0,2.53a8.931,8.931,0,0,0,3.852,1.394,22.749,22.749,0,0,0,10.034-.4,6.311,6.311,0,0,0,2.2-1.027,1.368,1.368,0,0,0-.032-2.476c-.18-.133-.383-.236-.57-.36-.24-.16-.732-.167-.356-.686.27-.373.449-.625.99-.327a4.533,4.533,0,0,1,2.3,5.381c-1.04,4.115-3.906,6.416-7.826,7.606a5.227,5.227,0,0,0-1.371.341Z" transform="translate(-31.978 -94.03)" fill="#fff"/>
        <path id="Path_74516" data-name="Path 74516" d="M24.646,0a6.938,6.938,0,0,1,2.943,1.716c.324.337.379.595-.029.876a.822.822,0,0,0-.183.173A5.161,5.161,0,0,1,22.4,4.786c-2.146-.185-4.321-.05-6.483-.033a1.342,1.342,0,0,1-1.046-.406c-.616-.614-1.252-1.211-1.911-1.778-.35-.3-.3-.5-.014-.811A7.056,7.056,0,0,1,15.86,0h1.69c.65.318,1.3.628,1.948.957a1.568,1.568,0,0,0,1.529.02C21.667.646,22.313.325,22.956,0Z" transform="translate(-10.567)" fill="#fff"/>
        <path id="Path_74517" data-name="Path 74517" d="M9.767,37.873c1.661,0,3.323.02,4.983-.012A1.531,1.531,0,0,1,16,38.4a13.245,13.245,0,0,1,2.492,3.787.9.9,0,0,1-.121,1.069,14.148,14.148,0,0,0-2.708,5.385c-.128.492-.357.593-.808.622a18.261,18.261,0,0,0-5.129.927,7.754,7.754,0,0,0-3.058,1.888c-.133.14-.241.325-.469.319a13.208,13.208,0,0,1-3.777-.2A2.919,2.919,0,0,1,.334,49.95,12.307,12.307,0,0,1,3.447,38.393,1.53,1.53,0,0,1,4.7,37.861c1.688.034,3.378.013,5.067.013M6.836,46.948a2.217,2.217,0,0,0,1.649,1.879c.414.133.841.157.765.771-.033.269.208.286.414.285s.445.008.408-.278c-.084-.651.384-.681.817-.821a2.2,2.2,0,0,0,1.644-2.022,1.851,1.851,0,0,0-1.563-1.928c-.761-.207-1.007-.584-.883-1.3.042-.241-.122-.583.12-.706.3-.152.357.248.537.386a1.259,1.259,0,0,0,1.4-.041c.243-.138-.12-.591-.32-.853-.524-.683-1.507-.616-2.072-1.248a.338.338,0,0,0-.315.023c-.33.625-1.057.523-1.542.862a1.872,1.872,0,0,0-.748,2.29A2.34,2.34,0,0,0,8.7,45.568c.26.094.55.131.534.526-.021.515-.005,1.031-.005,1.547l-.182.142c-.537-.884-1.2-1.371-2.211-.835" transform="translate(0 -31.464)" fill="#fff"/>
        <path id="Path_74518" data-name="Path 74518" d="M129.68,87.279a5.845,5.845,0,0,1-2.277,2.508,2.428,2.428,0,0,1-.864.3,1.024,1.024,0,0,1-1.28-.691,1.012,1.012,0,0,1,.792-1.286,3.185,3.185,0,0,1,1.074-.172,3.673,3.673,0,0,0,2.554-.663" transform="translate(-104.058 -72.533)" fill="#fff"/>
        <path id="Path_74519" data-name="Path 74519" d="M121.645,103.182a6.1,6.1,0,0,1-1.878,2.248,2.458,2.458,0,0,1-1.3.553c-.569.037-1.085-.127-1.233-.763a1.01,1.01,0,0,1,.693-1.2,2.764,2.764,0,0,1,1.317-.2,3.617,3.617,0,0,0,2.4-.64" transform="translate(-97.404 -85.749)" fill="#fff"/>
        <path id="Path_74520" data-name="Path 74520" d="M128.284,63.441a9.381,9.381,0,0,1-.633,3.578c-.256.558-.646.954-1.319.658a.991.991,0,0,1-.505-1.469,7.748,7.748,0,0,1,2.458-2.767" transform="translate(-104.45 -52.723)" fill="#fff"/>
        <path id="Path_74521" data-name="Path 74521" d="M95.552,101.215a3.882,3.882,0,0,0,.9,2.242,3.074,3.074,0,0,1,.618,1.182,1.018,1.018,0,0,1-.529,1.278c-.563.279-.964-.025-1.3-.448a2,2,0,0,1-.365-1.186,5.919,5.919,0,0,1,.672-3.067" transform="translate(-78.844 -84.115)" fill="#fff"/>
        <path id="Path_74522" data-name="Path 74522" d="M103.859,84.155a4.279,4.279,0,0,0,1.1,2.7.977.977,0,0,1,.087.144,1.509,1.509,0,0,1,.123,1.735.831.831,0,0,1-.979.314,1.5,1.5,0,0,1-1-1.426,6.177,6.177,0,0,1,.676-3.468" transform="translate(-85.723 -69.937)" fill="#fff"/>
        <path id="Path_74523" data-name="Path 74523" d="M111.832,69.644a4.946,4.946,0,0,0,1.154,2.548,1.489,1.489,0,0,1,.215,1.791.813.813,0,0,1-1.022.359,1.655,1.655,0,0,1-1-1.609,5.623,5.623,0,0,1,.653-3.089" transform="translate(-92.385 -57.878)" fill="#fff"/>
        <path id="Path_74524" data-name="Path 74524" d="M113.407,119.777a5.574,5.574,0,0,1-2.614,2.591c-.82.339-1.583.065-1.752-.582s.249-1.18,1.133-1.369a3.991,3.991,0,0,1,1-.075,4.034,4.034,0,0,0,2.232-.566" transform="translate(-90.587 -99.541)" fill="#fff"/>
        <path id="Path_74525" data-name="Path 74525" d="M97,134.626c-.466.747-.9,1.432-1.321,2.121-.16.259-.339.464-.674.294s-.355-.446-.206-.774.263-.676.394-1.015c.485-1.246.486-1.245,1.807-.626" transform="translate(-78.709 -111.543)" fill="#fff"/>
        <path id="Path_74526" data-name="Path 74526" d="M59.5,88.566c.166-.269-.209-.791.286-.814a.738.738,0,0,1,.722.863c-.02.449-.293.842-.687.822-.579-.029-.13-.59-.32-.871" transform="translate(-49.447 -72.926)" fill="#fff"/>
        <path id="Path_74527" data-name="Path 74527" d="M50.967,69.682a.7.7,0,0,1-.61-.694c-.023-.371.153-.735.521-.736.348,0,.182.4.192.618a1.126,1.126,0,0,1-.1.811" transform="translate(-41.848 -56.722)" fill="#fff"/>
      </g>
    </g>
    <g id="Group_50259" data-name="Group 50259" transform="translate(244.571 1026.534)">
      <g id="Group_50258" data-name="Group 50258" clip-path="url(#clip-path-2)">
        <path id="Path_74528" data-name="Path 74528" d="M7.93,27.4c.061-.551.131-1.1.18-1.654.1-1.092-.515-1.592-1.572-1.294-.584.165-1.163.35-1.753.491a1.96,1.96,0,0,1-2.308-.952c-1.511-2.538-1.939-2.942.591-5.216,1-.9.836-1.655-.412-2.215-.457-.205-.919-.4-1.37-.618a1.938,1.938,0,0,1-1.246-2.3c.443-2.877.423-3.454,3.76-3.562,1.344-.043,1.735-.732,1.147-1.946-.218-.451-.447-.9-.652-1.355a2.4,2.4,0,0,1-.249-.746C3.9,4.276,5.414,3.718,6.449,2.872A1.817,1.817,0,0,1,8.8,3.027c.444.332.9.653,1.345.978a1.114,1.114,0,0,0,1.926-.689c.149-.588.278-1.182.446-1.764A1.9,1.9,0,0,1,14.39.026a20.187,20.187,0,0,1,2.059,0,1.9,1.9,0,0,1,1.835,1.479c.178.607.314,1.226.469,1.84a1.1,1.1,0,0,0,1.874.681c.451-.323.9-.653,1.35-.972a2.686,2.686,0,0,1,.539-.327c1.711-.674,2.542.741,3.589,1.57a1.851,1.851,0,0,1,.453,2.371c-.267.6-.571,1.189-.853,1.785a1.1,1.1,0,0,0,.937,1.611c.659.047,1.318.085,1.975.147A1.955,1.955,0,0,1,30.452,11.8c.136.618.245,1.244.332,1.871a1.981,1.981,0,0,1-1.213,2.256c-.522.252-1.059.475-1.592.7-.363.157-.731.277-.8.765a.417.417,0,0,1-.552.318.459.459,0,0,1-.386-.522c.04-.5.085-.982.69-1.2.717-.263,1.4-.613,2.1-.917a1.126,1.126,0,0,0,.743-1.383c-.489-2.865-.331-2.352-2.8-2.609a5.755,5.755,0,0,0-.87-.046.94.94,0,0,1-.987-.629,4.641,4.641,0,0,0-.475-.821A1,1,0,0,1,24.6,8.405c.359-.675.668-1.377,1.009-2.062a1.086,1.086,0,0,0-.278-1.418c-1.854-1.738-1.932-1.84-3.84-.222-1.1.935-2.019.653-3.081.216a.837.837,0,0,1-.469-.681c-.194-.795-.4-1.586-.6-2.379a1,1,0,0,0-1.081-.837c-2.878.022-2.616-.344-3.124,2.335C12.862,4.8,11.96,5.126,10.876,5.467a.783.783,0,0,1-.725-.216c-.594-.44-1.195-.871-1.794-1.3a1.772,1.772,0,0,0-.4-.259c-1.234-.448-1.666.745-2.442,1.223A.99.99,0,0,0,5.169,6.3c.332.689.652,1.386,1.018,2.057A1.06,1.06,0,0,1,6.1,9.67a3.033,3.033,0,0,0-.433.753.957.957,0,0,1-.994.614c-.765.021-1.528.1-2.292.153a1.048,1.048,0,0,0-1.074.961c-.453,2.674-.791,2.513,1.734,3.428,1.363.494,1.56,1.438,1.726,2.568a.832.832,0,0,1-.366.744c-.551.532-1.089,1.078-1.654,1.6a1.11,1.11,0,0,0-.258,1.547c1.418,2.454,1.1,2.331,3.556,1.456,1.39-.495,2.123.135,2.96.909a.854.854,0,0,1,.168.815c-.089.76-.167,1.522-.248,2.283a1.2,1.2,0,0,0,.153.838,4.335,4.335,0,0,0,3.1.954c.348-.157.672-.285.852.161.17.42-.147.621-.468.785-1.169.6-4.077-.515-4.532-1.734a2.491,2.491,0,0,1-.108-1.1" transform="translate(0 0)" fill="#fff"/>
        <path id="Path_74529" data-name="Path 74529" d="M99.934,117.087c-1.953,0-3.905.01-5.858,0-2.016-.011-2.9-1.524-1.9-3.267q2.933-5.111,5.894-10.207a1.993,1.993,0,0,1,3.655-.035q3.033,5.191,6.015,10.411a1.982,1.982,0,0,1-1.794,3.091c-2.005.028-4.011.007-6.016.008m-.043-1.013c1.979,0,3.957.007,5.936,0,1.125-.005,1.553-.7,1-1.654q-2.969-5.181-5.971-10.342c-.527-.906-1.372-.894-1.9.02q-2.981,5.128-5.932,10.273c-.577,1.006-.158,1.7,1.01,1.7,1.952.008,3.9,0,5.857,0" transform="translate(-77.216 -86.162)" fill="#fff"/>
        <path id="Path_74530" data-name="Path 74530" d="M46.47,53.953A7.2,7.2,0,0,0,53.077,61.1l.158.01c.388.024.808.072.742.59-.064.5-.5.463-.873.431a8.2,8.2,0,1,1,1.183-16.361,8.122,8.122,0,0,1,7.362,6.39c.09.406.3.926-.295,1.05s-.595-.459-.685-.85a7.188,7.188,0,0,0-14.2,1.6" transform="translate(-38.254 -38.475)" fill="#fff"/>
        <path id="Path_74531" data-name="Path 74531" d="M138.261,127.933c0-.158,0-.316,0-.474.013-.495.257-.824.757-.835a.741.741,0,0,1,.8.869c-.039.921-.125,1.84-.191,2.76-.034.473-.074.946-.1,1.419-.019.358-.048.751-.5.747-.408,0-.435-.372-.458-.7-.088-1.262-.186-2.523-.28-3.784h-.021" transform="translate(-116.338 -106.548)" fill="#fff"/>
        <path id="Path_74532" data-name="Path 74532" d="M139.895,171.344c-.08.45-.324.757-.78.75a.772.772,0,1,1,.063-1.541.771.771,0,0,1,.717.791" transform="translate(-116.406 -143.508)" fill="#fff"/>
      </g>
    </g>
    <g id="Group_50261" data-name="Group 50261" transform="translate(245.618 1255.236)">
      <g id="Group_50260" data-name="Group 50260" clip-path="url(#clip-path-3)">
        <path id="Path_74533" data-name="Path 74533" d="M0,43.334A7.121,7.121,0,0,1,3.005,38.8c.322-.211.26-.5.263-.781.036-3.836-.049-7.672.049-11.509.018-.7.226-.983.926-.958.909.032,1.819.017,2.728.013.367,0,.669.128.679.51.012.428-.318.572-.7.577-.688.009-1.377.027-2.065.011-.371-.009-.552.1-.519.5a7.086,7.086,0,0,1,.016.958c-.024.46.039.8.624.818a.493.493,0,0,1,.007.982c-.732-.028-.672.458-.664.93a6.865,6.865,0,0,1,.005.737c-.036.4.014.682.523.646a.493.493,0,0,1,.576.525.515.515,0,0,1-.6.518c-.457-.02-.529.218-.509.585a7,7,0,0,1,.008.885c-.033.452-.043.83.6.787a.465.465,0,0,1,.491.53.475.475,0,0,1-.525.5c-.571-.061-.585.287-.576.684,0,.123-.011.247,0,.369a2.3,2.3,0,0,1-1.079,2.391,5.067,5.067,0,0,0-2.041,5.6,5.357,5.357,0,0,0,4.088,4.126,5.5,5.5,0,0,0,6.321-3.152A5.387,5.387,0,0,0,9.8,39.907a1.925,1.925,0,0,1-.969-1.856c.024-4.844-.005-9.689-.023-14.533a2.207,2.207,0,0,0-1.393-2.226,2.143,2.143,0,0,0-2.332.429,2.789,2.789,0,0,0-.749,1.942c-.029.211.023.458-.191.608a.492.492,0,0,1-.549.082c-.286-.154-.287-.447-.316-.7a3.441,3.441,0,0,1,1.862-3.271,3.191,3.191,0,0,1,3.632.5A3.307,3.307,0,0,1,9.9,23.416c-.012,4.869.006,9.738,0,14.607a.972.972,0,0,0,.45.912,6.566,6.566,0,0,1,2.665,6.925A6.634,6.634,0,0,1,7.5,50.9a1.216,1.216,0,0,0-.262.109H6.052a8.227,8.227,0,0,1-3.319-1.286A7.105,7.105,0,0,1,0,45.253Z" transform="translate(0 -17.795)" fill="#fff"/>
        <path id="Path_74534" data-name="Path 74534" d="M91.811,0c1,.222,2.049.126,3.051.416.549.159.886.364.787,1a1.751,1.751,0,0,0,.277,1.2c.839,1.359.49,2.734.034,4.1a1.344,1.344,0,0,1-1.2.951,3.052,3.052,0,0,0-1.291.507c-1.218.75-1.356,1.282-.668,2.51.36.642.7,1.294,1.084,1.924.519.858.69.856,1.216-.028.426-.717.8-1.465,1.219-2.185.755-1.295,1.992-1.358,2.94-.164a8.991,8.991,0,0,1,1.056,1.848,1.3,1.3,0,0,0,1.413.8,19.275,19.275,0,0,0,3.556-.565c.639-.159.691-.416.481-.969a15.618,15.618,0,0,0-7.53-8.53c-.347-.183-.7-.366-1.048-.538-.329-.161-.528-.4-.365-.762.177-.4.528-.308.824-.185a15.586,15.586,0,0,1,4.133,2.525A16.76,16.76,0,0,1,107,11.65c.322,1,.243,1.155-.772,1.489a16.431,16.431,0,0,1-4.475.823,2.275,2.275,0,0,1-2.417-1.413A10.389,10.389,0,0,0,98.6,11.19c-.612-.949-.982-.926-1.514.04-.414.752-.8,1.526-1.283,2.232-.837,1.225-1.873,1.219-2.684-.031a31.45,31.45,0,0,1-1.7-3.01,1.907,1.907,0,0,1,.315-2.141A4.361,4.361,0,0,1,94.3,6.653.933.933,0,0,0,95.15,5.8c.152-.987.444-1.987-.292-2.888a.679.679,0,0,1-.163-.4c.037-1.207-.841-1.236-1.672-1.3a16.066,16.066,0,0,0-7.8,1.1,4.179,4.179,0,0,1-.411.161.5.5,0,0,1-.689-.236.508.508,0,0,1,.269-.734,11,11,0,0,1,2.56-.9c.972-.231,1.959-.4,2.939-.6Z" transform="translate(-74.687)" fill="#fff"/>
        <path id="Path_74535" data-name="Path 74535" d="M129.953,128.66a23.2,23.2,0,0,1-.983,4.194A16.508,16.508,0,0,1,115.606,143.7c-.432.074-.888-.052-1.3.167h-1.771c-.824-.236-1.7-.126-2.519-.42-.16-.058-.328-.1-.488-.155-.331-.12-.581-.324-.453-.709s.451-.414.789-.309a12.856,12.856,0,0,0,4.591.416,15.469,15.469,0,0,0,14.005-11.932,14.34,14.34,0,0,0,.332-4.9,2.707,2.707,0,0,1-.022-.441c.016-.372-.133-.869.474-.888.56-.017.551.445.591.839.017.166-.025.35.119.486Z" transform="translate(-96.886 -110.65)" fill="#fff"/>
        <path id="Path_74536" data-name="Path 74536" d="M174.031,155.887a2.054,2.054,0,0,1-1.205-.332,19.711,19.711,0,0,0-2.812-1.736c-.536-.3-.934-.695-.739-1.354a1.129,1.129,0,0,1,1.366-.859,1.793,1.793,0,0,0,2.075-.892,1.947,1.947,0,0,1,1.185-.682c.623-.13,1.241-.286,1.862-.424a3.205,3.205,0,0,1,1.745.091,1.428,1.428,0,0,1,.718,2.5,12.432,12.432,0,0,0-1.727,2.365,2.765,2.765,0,0,1-2.467,1.322m-3.618-3.239c.934.7,1.906,1.15,2.764,1.792a1.628,1.628,0,0,0,2.455-.53,9.74,9.74,0,0,1,1.677-2.3c.458-.492.394-.811-.291-.905a4.579,4.579,0,0,0-3.471.785c-.952.755-1.629,1.839-3.135,1.16" transform="translate(-150.362 -132.862)" fill="#fff"/>
        <path id="Path_74537" data-name="Path 74537" d="M101.616,114.422a5.6,5.6,0,0,1-.7,2.627c-.483.98-.352,1.245.685,1.638.366.139.741.252,1.108.389a1.752,1.752,0,0,1,1.206,1.534,2.242,2.242,0,0,1-.769,1.908.5.5,0,0,1-.671.075c-.284-.195-.236-.46-.133-.722a2.19,2.19,0,0,1,.2-.307c.523-.853.38-1.246-.58-1.594-.3-.108-.6-.2-.9-.318-1.518-.624-1.886-1.493-1.178-2.965a6.139,6.139,0,0,0,.67-2.83,1.578,1.578,0,0,0-.663-1.455c-.326-.216-.5-.514-.217-.866s.6-.183.9.026c.832.581,1.116,1.3,1.036,2.862" transform="translate(-88.441 -98.918)" fill="#fff"/>
        <path id="Path_74538" data-name="Path 74538" d="M137.305,235.582a1.85,1.85,0,0,1-3.645.169,2.731,2.731,0,0,1,2.11-2.345c.706.014,1.537,1.193,1.535,2.175m-1.851.57c.343-.12.819-.091.775-.6a1.1,1.1,0,0,0-.568-.958c-.164-.077-.922.813-.9,1.075.032.437.447.347.7.487" transform="translate(-118.763 -207.391)" fill="#fff"/>
        <path id="Path_74539" data-name="Path 74539" d="M55.129,237.329a.589.589,0,0,1-.723-.469c-.082-.428.273-.543.594-.591a2.359,2.359,0,0,0,2.171-2.229c.045-.33.216-.579.573-.528.326.047.476.282.482.634a3.381,3.381,0,0,1-3.1,3.182" transform="translate(-48.332 -207.48)" fill="#fff"/>
      </g>
    </g>
    <g id="Group_50263" data-name="Group 50263" transform="translate(243.306 1350.305)">
      <g id="Group_50264" data-name="Group 50264">
        <path id="Path_74540" data-name="Path 74540" d="M9.331,25.131c.063-.527.167-.233.1-.36a5.849,5.849,0,0,1-.566-2.682,10.084,10.084,0,0,1,1.537-5.081c.412-.7.868-1.377,1.322-2.054.05-.074.186-.158.035-.266a2.414,2.414,0,0,0-1.706-.605c-.111.012-.14.059-.171.149a.543.543,0,0,1-.582.375c-.413,0-.826,0-1.239,0-.14,0-.233.011-.284.18a.5.5,0,0,1-.531.346q-3.341,0-6.682,0A.514.514,0,0,1,0,14.555Q0,10.171,0,5.787a.512.512,0,0,1,.566-.569q3.341-.007,6.682,0a.494.494,0,0,1,.531.345c.05.169.145.18.285.178.4,0,.8,0,1.206,0a.548.548,0,0,1,.6.345c.047.124.106.142.217.077.159-.094.325-.174.485-.266a21.36,21.36,0,0,1,2.459-1.333c.246-.1.3-.193.183-.444a7.083,7.083,0,0,1-.664-1.9A1.752,1.752,0,0,1,13.9.039c.019,0,.034-.025.051-.038h.652a4.305,4.305,0,0,1,1.845,1.156c.155.152.262.16.425.006A4.26,4.26,0,0,1,18.715,0h.652c.092.029.184.059.277.087a1.662,1.662,0,0,1,1.22,1.59,4.471,4.471,0,0,1-.22,1.377,25.908,25.908,0,0,0-.714,2.5.323.323,0,0,0,.15.381,6.9,6.9,0,0,1,.674.513A1.524,1.524,0,0,1,21.3,8.2c-.068.2.037.214.158.269a1.541,1.541,0,0,1,.707,2.308.277.277,0,0,0,0,.364,1.469,1.469,0,0,1,0,1.712.3.3,0,0,0,.01.393,1.484,1.484,0,0,1-.121,1.84.294.294,0,0,0-.02.438,16.737,16.737,0,0,1,1.535,2.607c.973,2.185,1.4,4.405.354,6.7-.068.148.022.166.112.2.256.088.516.167.771.26.186.068.236.016.241-.182.009-.409.2-.577.617-.58s.826,0,1.239,0c.1,0,.2.03.247-.13.084-.312.325-.4.629-.4,1.63.006,3.26.009,4.89,0a.777.777,0,0,1,.721.334v8.738a.76.76,0,0,1-.593.33c-1.695-.007-3.39,0-5.085,0-.184,0-.4-.035-.451-.2-.119-.4-.412-.323-.69-.323-.315,0-.63,0-.945,0a.508.508,0,0,1-.551-.365c-.047-.16-.141-.155-.262-.158a6.423,6.423,0,0,0-1.322.167c-1.527.274-3.054.549-4.586.8a3.283,3.283,0,0,1-2.682-.647c-1.578-1.2-3.031-2.537-4.484-3.878-.09-.083-.154-.209-.248-.217,0,0-1.9-1.815-2.156-2.764s0-.675,0-.675m.582-3.01a5.036,5.036,0,0,0,.3,1.821c.043.115.072.222.249.158a2.432,2.432,0,0,1,1.535.036c1.648.47,3.3.933,4.944,1.408a1.072,1.072,0,0,0,.66-.015c.712-.228,1.429-.447,2.151-.64a6.952,6.952,0,0,1,2.566-.349c.591.065.591.077.815-.466a3.862,3.862,0,0,0,.148-.43,6.613,6.613,0,0,0-.042-3.381,13.756,13.756,0,0,0-1.789-3.777c-.372-.622-.778-1-1.534-.835a.15.15,0,0,1-.032,0,1.529,1.529,0,0,1-1.423-.815,1.482,1.482,0,0,1,.079-1.632.228.228,0,0,0,.013-.308,1.5,1.5,0,0,1,0-1.8.2.2,0,0,0,.007-.281,1.452,1.452,0,0,1-.225-1.359c.062-.187-.019-.22-.159-.264-.373-.117-.747-.231-1.111-.37a.316.316,0,0,0-.429.135,2.167,2.167,0,0,1-1.281.839.29.29,0,0,0-.269.3,8.516,8.516,0,0,1-1.39,3.75c-.687,1.094-1.421,2.158-2.116,3.247a9.3,9.3,0,0,0-1.664,5.03m15.125,6.726c0-.728,0-1.456,0-2.183,0-.11.041-.233-.14-.274-.742-.168-1.433-.5-2.166-.7a3.03,3.03,0,0,0-1.32-.086,24.554,24.554,0,0,0-3.737.995c-.374.125-.53.375-.437.676s.354.423.737.322c.954-.252,1.906-.511,2.861-.762a.522.522,0,0,1,.683.326.515.515,0,0,1-.394.674c-1.025.281-2.048.572-3.082.815a1.536,1.536,0,0,1-1.807-1.91c.073-.262.006-.326-.224-.39-1.443-.4-2.882-.807-4.322-1.214a1.856,1.856,0,0,0-.738-.089.532.532,0,0,0-.516.529,1.052,1.052,0,0,0,.388.891c1.051.991,2.091,1.995,3.159,2.967a25.537,25.537,0,0,0,3.34,2.7,1.209,1.209,0,0,0,.831.195c1.046-.122,2.083-.3,3.122-.469a23.369,23.369,0,0,1,3.6-.557c.195,0,.164-.125.165-.241q0-1.108,0-2.216m-24-18.684c0,1.206.006,2.411-.005,3.617,0,.232.042.315.3.313q2.574-.019,5.149,0c.247,0,.3-.067.3-.307q-.014-3.617,0-7.234c0-.218-.043-.3-.281-.3q-2.59.016-5.181,0c-.232,0-.288.064-.286.29.011,1.206.005,2.411.005,3.617m8.869.012c0,.837.01,1.674-.006,2.51-.005.269.038.391.346.363a2.607,2.607,0,0,1,1.547.416c.218.125.432.434.647.342.2-.084.3-.406.429-.63a8.13,8.13,0,0,0,1.151-2.987c.023-.167.018-.272-.175-.345a.456.456,0,0,1-.28-.562.488.488,0,0,1,.481-.411c.151-.011.3-.01.456-.008A1.563,1.563,0,0,0,16.035,8a.634.634,0,0,1,.738-.335,14.51,14.51,0,0,1,1.642.52,2.441,2.441,0,0,0,1.314.1c.274-.074.529-.188.6-.487s-.14-.486-.355-.642c-.5-.364-1.011-.714-1.511-1.079a4.608,4.608,0,0,0-2.881-.9,6.1,6.1,0,0,0-3.071.8c-.273.156-.545.316-.821.467a8.318,8.318,0,0,1-1.554.812c-.184.055-.228.126-.226.3.009.869,0,1.739,0,2.608M32.344,28.692c0-1.119-.008-2.238.006-3.357,0-.25-.071-.3-.309-.3q-1.792.018-3.585,0c-.224,0-.293.052-.292.285q.013,3.373,0,6.746c0,.234.068.287.292.285q1.792-.016,3.585,0c.238,0,.313-.051.309-.3-.015-1.119-.006-2.238-.006-3.357M14.185,3.251c-.209,0-.209,0-.046.37a1.754,1.754,0,0,1,.126.3c.053.227.193.266.406.261.608-.015,1.217,0,1.825-.012a2.521,2.521,0,0,1,1.134.245,7.955,7.955,0,0,1,1.083.594c.186.124.236.081.291-.127.158-.586.348-1.163.52-1.745a5.248,5.248,0,0,0,.3-1.363.631.631,0,0,0-.545-.7,1.085,1.085,0,0,0-.945.242c-.337.256-.658.532-.982.805a4.826,4.826,0,0,1-3.163,1.131m-6.36,6.924v2.67c0,.722,0,.709.729.724.26.005.322-.072.32-.324-.01-1.9-.006-3.8-.006-5.7,0-.78,0-.772-.778-.771-.214,0-.272.062-.27.273.01,1.042,0,2.084,0,3.126m19.3,18.518v-2.41c0-.724,0-.712-.726-.726-.252,0-.326.06-.324.32.012,1.726.006,3.452.006,5.178,0,.783,0,.775.774.774.209,0,.277-.053.274-.27-.011-.955,0-1.911,0-2.866M20.345,10.429c.184,0,.37.012.553,0a.517.517,0,0,0-.02-1.033c-.357-.013-.716-.012-1.073,0a.5.5,0,0,0-.5.493.5.5,0,0,0,.489.54c.183.015.368,0,.553,0M20.338,14.6h0c.184,0,.369.011.553,0a.517.517,0,0,0-.007-1.033c-.357-.014-.716-.013-1.073,0a.5.5,0,0,0-.508.52.5.5,0,0,0,.515.516c.173.01.347,0,.52,0m-.024-2.088h0c.184,0,.369.009.553,0A.506.506,0,0,0,21.385,12a.5.5,0,0,0-.509-.52c-.357-.013-.716-.013-1.073,0a.5.5,0,0,0-.5.495.5.5,0,0,0,.491.538c.172.014.347,0,.52,0m-4.592-10.6a4.177,4.177,0,0,0-1.035-.774.858.858,0,0,0-.84.018.6.6,0,0,0-.275.648c.034.247.234.32.45.35a3.47,3.47,0,0,0,1.7-.241" transform="translate(0 -0.001)" fill="#fff"/>
        <path id="Path_74541" data-name="Path 74541" d="M163.735,179.965c0-.261-.012-.522,0-.782.012-.2-.048-.271-.254-.258a1.965,1.965,0,0,1-.679-.051,1.569,1.569,0,0,1-1.152-1.455c-.012-.369-.01-.739,0-1.108a1.572,1.572,0,0,1,1.563-1.555,1.443,1.443,0,0,1,.228,0c.217.03.334-.037.292-.277a.186.186,0,0,1,0-.033c0-.479.172-.722.5-.733s.553.246.531.734c-.012.276.095.313.333.311a1.586,1.586,0,0,1,1.735,1.291,1.157,1.157,0,0,1,.023.259.52.52,0,0,1-1.034.088.687.687,0,0,0-.937-.6c-.128.032-.112.112-.112.195,0,.565,0,1.13,0,1.695,0,.159.056.206.208.2a2.477,2.477,0,0,1,.648.039,1.571,1.571,0,0,1,1.231,1.492q.016.554,0,1.108a1.565,1.565,0,0,1-1.549,1.531h-.1c-.428,0-.428,0-.437.424a1.2,1.2,0,0,1-.007.163.51.51,0,0,1-.545.453.5.5,0,0,1-.486-.479,1.828,1.828,0,0,1,0-.358c.013-.157-.051-.207-.2-.2a2.424,2.424,0,0,1-.712-.048,1.592,1.592,0,0,1-1.159-1.314.569.569,0,0,1,.445-.714c.3-.044.526.162.59.547a.712.712,0,0,0,.969.481c.094-.047.068-.126.068-.2,0-.282,0-.565,0-.847m0-3.135c0-.271,0-.541,0-.812,0-.072.025-.156-.054-.207a.708.708,0,0,0-.98.494c-.018.28-.006.563-.006.844,0,.6.15.733.752.741.218,0,.313-.043.294-.281-.021-.258,0-.519,0-.779m1.043,3.132c0,.282,0,.563,0,.845,0,.07-.025.152.063.2a.691.691,0,0,0,.977-.533c.011-.249,0-.5,0-.747,0-.667-.2-.849-.861-.8-.142.01-.188.055-.185.192.007.281,0,.563,0,.845" transform="translate(-147.564 -158.582)" fill="#fff"/>
      </g>
    </g>
    <g id="Group_50266" data-name="Group 50266" transform="translate(246.987 1140.27)">
      <g id="Group_50267" data-name="Group 50267" transform="translate(0 0)">
        <path id="Path_74542" data-name="Path 74542" d="M23.287,0A6.634,6.634,0,0,1,27.332,3.04a9,9,0,0,1,.588,1.5c.082.254.09.574-.239.687-.355.122-.463-.178-.563-.427s-.156-.518-.264-.763A4.854,4.854,0,0,0,22.608.919a4.891,4.891,0,0,0-4.853,2.522c-.23.376-.533.76-.089,1.243.342.372.165.814-.1,1.168a1.956,1.956,0,0,0-.053,2.175,5.088,5.088,0,0,0,9.466-.416c.148-.412.036-1.261.746-1.022.575.194.185.875.039,1.325a4.846,4.846,0,0,1-1.834,2.608,1.768,1.768,0,0,0-.788,1.756c.04,1.466.015,2.935.009,4.4,0,.334.08.814-.381.834-.547.024-.489-.49-.491-.865-.009-1.429-.022-2.858,0-4.287.011-.611-.12-.815-.788-.618a4.041,4.041,0,0,1-2.407.037c-1.11-.378-1.072.189-1.065.973.026,2.858.01,5.716.01,8.574,0,2.174,0,2.174-2.174,2.555,1.385,1.553,2.7,3.034,4.022,4.51.266.3.469.109.662-.108l3.837-4.3c-.105-.12-.149-.216-.2-.221-1.9-.174-1.9-.173-1.9-2.094,0-.618-.02-1.237.008-1.854.017-.389-.152-.994.477-.982.55.01.377.575.388.928.023.733.044,1.47,0,2.2-.045.682.152.982.893.948.534-.024,1.251-.274,1.531.447.265.684-.4,1.027-.753,1.44-1.212,1.4-2.455,2.778-3.694,4.157-.857.953-1.107.988-1.9,0-.608-.761-1.071-1.041-1.854-.192a3.338,3.338,0,0,1-2.64.926c-5.021-.037-10.042-.014-15.062-.019C.255,29.664,0,29.385,0,27.954q.006-4.889,0-9.778c0-1.472.248-1.818,1.758-1.7,1.719.131,3.038-.113,3.988-1.834a7.109,7.109,0,0,1,3.621-2.779c.466-.2.824-.332.56-.978a1.139,1.139,0,0,1,.253-1.3c.763-.562.434-1.054.087-1.626Q9.577,6.817,8.937,5.649c-.286-.521-.19-1.223.376-1.19,1.666.1,3.1-1.1,4.777-.75a2.22,2.22,0,0,1,.769.2c1.229.737,1.345.71,1.928-.524A6.717,6.717,0,0,1,20.969,0ZM5.6,16.266a1.286,1.286,0,0,0,.967.176c1.533.031,1.756.244,1.737,1.744-.014,1.114,0,2.23-.07,3.341-.142,2.338-.16,2.337,2.2,2.338.27,0,.541,0,.811,0,1.312.016,1.632.314,1.577,1.667-.032.8.019,1.6-.009,2.392s.309.893.958.868a27.125,27.125,0,0,1,3.011.005,3.318,3.318,0,0,0,2.477-1.036c.386-.33.382-.589.043-.949q-.992-1.054-1.927-2.161c-.331-.391-.907-.724-.586-1.374.291-.588.886-.411,1.348-.371.846.073,1.031-.283,1.016-1.062q-.067-3.475,0-6.951a1.611,1.611,0,0,0-.834-1.49,9.056,9.056,0,0,0-7-1.234,8.167,8.167,0,0,0-5.718,4.1m-1.439,5.1H6.824c.332,0,.644-.049.631-.479-.011-.366.18-.842-.261-1.039a3.314,3.314,0,0,0-1.024-.1c-.245-.021-.473-.1-.483-.386s.215-.381.459-.408a3.244,3.244,0,0,1,.577-.02c.651.047.749-.328.755-.871.007-.559-.219-.744-.754-.738-1.7.018-3.4.023-5.093,0-.605-.009-.8.217-.8.815,0,.614.252.819.833.8.732-.023,1.466-.005,2.2.012.282.007.569.092.531.45-.029.272-.277.347-.523.35-.656.008-1.312.016-1.967.011-.559,0-1.063-.059-1.079.789-.016.827.429.84,1.021.824.771-.021,1.543-.005,2.315-.008m.063.888c-.844,0-1.69.034-2.532-.011-.658-.035-.869.213-.861.86.007.624.267.781.837.773,1.65-.025,3.3-.033,4.95,0,.661.015.866-.23.864-.869s-.273-.788-.84-.765c-.8.032-1.611.008-2.417.008m4.459,6.531c.806,0,1.613-.015,2.419.005.519.013.874-.039.857-.723-.016-.606-.133-.916-.827-.9-1.65.038-3.3.029-4.953,0-.6-.01-.8.217-.8.809,0,.574.15.844.775.814.843-.04,1.689-.01,2.534-.009M8.6,26.341v0c.92,0,1.841,0,2.761,0,.655,0,.564-.46.586-.88.024-.452-.083-.724-.616-.719-1.764.016-3.528.021-5.292,0-.621-.008-.65.342-.655.809,0,.492.094.817.685.8.843-.022,1.687-.006,2.531-.006m7.89-18.436c-1.34,1.294,1.133,2.322.092,3.516l2.577,1.442c-.141-.819.3-1.517-.391-2.01a6.8,6.8,0,0,1-2.278-2.948M2.618,26.345c.306,0,.612-.016.917,0,.593.037.991-.009,1-.819.009-.856-.463-.8-1.018-.79-.649.011-1.3.022-1.948,0-.541-.019-.738.2-.732.745s.109.9.75.863c.343-.021.688,0,1.031,0m.054,2.437c.23,0,.461.018.689,0,.5-.049,1.152.268,1.174-.742s-.593-.858-1.187-.86c-.613,0-1.225.013-1.837,0-.6-.014-.662.347-.671.823-.01.5.1.823.685.786.381-.024.765,0,1.148,0M13.236,11.174c.652,0,1.3.008,1.957,0a.589.589,0,0,0,.661-.627.574.574,0,0,0-.625-.657q-1.9-.027-3.8-.006a.579.579,0,0,0-.655.627c-.005.513.3.663.734.667.576,0,1.151,0,1.727,0M13.3,9.3a20.241,20.241,0,0,0,.915-4.292c.1-.645-.549-.38-.849-.369-.337.012-1.032-.3-.948.383A19.252,19.252,0,0,0,13.3,9.3m-1.42-.323.294-.112Q11.9,7.3,11.627,5.732A.549.549,0,0,0,11,5.207c-.365.028-.827-.176-1.068.16-.19.264.163.543.305.795.537.946,1.093,1.88,1.643,2.818m2.568-.115.291.145c.561-.967,1.143-1.923,1.668-2.91.13-.244.711-.675.047-.845-.458-.117-1.246-.4-1.443.45-.242,1.041-.38,2.105-.563,3.16" transform="translate(0 0.001)" fill="#fff"/>
        <path id="Path_74543" data-name="Path 74543" d="M451.29,66.185c-.376-.139-.361-.453-.21-.74.965-1.836,1.947-3.664,2.928-5.493.14-.26.346-.443.648-.25a.427.427,0,0,1,.109.613q-1.488,2.8-2.984,5.59a.487.487,0,0,1-.491.28" transform="translate(-430.757 -56.949)" fill="#fff"/>
        <path id="Path_74544" data-name="Path 74544" d="M421.376,61.945a1.282,1.282,0,0,1-1.248-1.458,1.245,1.245,0,0,1,1.354-1.281,1.282,1.282,0,0,1,1.373,1.4,1.314,1.314,0,0,1-1.479,1.339" transform="translate(-401.286 -56.551)" fill="#fff"/>
        <path id="Path_74545" data-name="Path 74545" d="M509,147.988a1.331,1.331,0,0,1-1.37-1.4,1.252,1.252,0,0,1,1.271-1.367,1.273,1.273,0,0,1,1.446,1.316A1.343,1.343,0,0,1,509,147.988" transform="translate(-484.869 -138.705)" fill="#fff"/>
        <path id="Path_74546" data-name="Path 74546" d="M244.52,326.331c.134.059.322.1.323.148.022,1.062,1.039.9,1.587,1.313a1.4,1.4,0,0,1,.573,1.091c.012.243-.052.478-.33.532-.212.041-.328-.112-.449-.279a2.517,2.517,0,0,0-2.683-.761.837.837,0,0,0-.52.929.813.813,0,0,0,.79.841c.536.05,1.079.023,1.618.045a1.525,1.525,0,0,1,1.592,1.506,1.6,1.6,0,0,1-1.186,1.971c-.515.124-.846.224-.848.82a.361.361,0,0,1-.413.32.383.383,0,0,1-.378-.368c.055-.683-.418-.657-.874-.773a1.488,1.488,0,0,1-1.132-1.322.461.461,0,0,1,.281-.567c.269-.092.39.091.527.3a2.515,2.515,0,0,0,2.8.658.909.909,0,0,0,.365-1.018.8.8,0,0,0-.812-.69c-.577-.035-1.159,0-1.734-.059a1.527,1.527,0,0,1-1.452-1.531,1.612,1.612,0,0,1,1.125-1.915c.515-.148.954-.2.937-.869,0-.105.185-.215.293-.331" transform="translate(-231.292 -311.697)" fill="#fff"/>
      </g>
    </g>
    <g id="Group_50271" data-name="Group 50271" transform="translate(10 20)">
      <circle id="Ellipse_258" data-name="Ellipse 258" cx="24" cy="24" r="24" transform="translate(227 903)" fill="#f40f34"/>
      <g id="Group_50269" data-name="Group 50269" transform="translate(236.124 913.271)">
        <g id="Group_50270" data-name="Group 50270" transform="translate(0 0)">
          <path id="Path_74547" data-name="Path 74547" d="M2.908,9.5c1.028,0,1.95-.006,2.873,0,.958.008,1.181.236,1.181,1.175q0,4.87,0,9.739c0,.724-.582,1.147-1.177.867a.872.872,0,0,1-.483-.894c.005-2.9-.005-5.8.012-8.7,0-.407-.084-.549-.518-.538-1.246.03-2.493.006-3.739.013-.435,0-.813-.078-.992-.533a.9.9,0,0,1,.324-1.04Q5.109,4.971,9.823.341a.85.85,0,0,1,1.364,0Q15.938,5,20.683,9.658a.857.857,0,0,1,.252.985.839.839,0,0,1-.871.522c-1.29,0-2.58.013-3.869-.008-.371-.006-.5.079-.491.477.024,1.739.012,3.478.009,5.217,0,.836-.287,1.113-1.129,1.113H11.767c-.057.155.06.2.124.262q3.548,3.491,7.1,6.98c.167.164.279.239.49.03q3.587-3.543,7.191-7.07a1.092,1.092,0,0,0,.1-.134.629.629,0,0,0-.438-.067c-.87,0-1.739.007-2.609,0a.827.827,0,0,1-.928-.868q-.012-5.065,0-10.131a.822.822,0,0,1,.83-.878.842.842,0,0,1,.823.925c0,2.928.009,5.855-.006,8.783,0,.386.079.523.495.513,1.217-.029,2.435-.005,3.652-.012.451,0,.888.01,1.1.508s-.069.813-.4,1.135q-4.661,4.56-9.312,9.13a.87.87,0,0,1-1.452,0q-4.7-4.612-9.4-9.226a.865.865,0,0,1-.128-1.3.974.974,0,0,1,.762-.244c1.275,0,2.551-.012,3.826.008.356.005.472-.09.469-.457-.018-1.753-.009-3.507-.007-5.261,0-.814.281-1.092,1.1-1.093q1.428,0,2.856,0l.073-.116c-.425-.4-.857-.8-1.275-1.208Q13.8,5.238,10.8,2.3c-.174-.171-.286-.322-.548-.062Q6.7,5.753,3.126,9.244c-.05.049-.092.106-.219.255" transform="translate(0 0)" fill="#fff"/>
          <path id="Path_74548" data-name="Path 74548" d="M116.158,17.225c0-.549-.011-1.1,0-1.648a.825.825,0,1,1,1.648-.017q.029,1.669,0,3.34a.8.8,0,0,1-.863.831.813.813,0,0,1-.792-.857c-.012-.549,0-1.1,0-1.648h0" transform="translate(-96.275 -12.179)" fill="#fff"/>
          <path id="Path_74549" data-name="Path 74549" d="M66.183,133.461c0,.55.007,1.1,0,1.649a.831.831,0,1,1-1.653-.025q-.007-1.583,0-3.167c0-.592.322-.944.838-.94a.831.831,0,0,1,.817.922c.007.521,0,1.041,0,1.562" transform="translate(-53.482 -108.564)" fill="#fff"/>
          <path id="Path_74550" data-name="Path 74550" d="M101.274,2.569c0,.535.006,1.07,0,1.605a.829.829,0,1,1-1.654,0q-.016-1.627,0-3.254a.83.83,0,1,1,1.655,0c.007.55,0,1.1,0,1.649" transform="translate(-82.564 -0.017)" fill="#fff"/>
          <path id="Path_74551" data-name="Path 74551" d="M47.948,118.806c0-.521-.006-1.042,0-1.562.009-.591.335-.952.842-.951a.831.831,0,0,1,.819.923q.014,1.584,0,3.168c-.005.6-.329.952-.836.948s-.82-.365-.827-.963c-.007-.521,0-1.042,0-1.562Z" transform="translate(-39.739 -96.393)" fill="#fff"/>
        </g>
      </g>
    </g>
    <path id="Path_74554" data-name="Path 74554" d="M916,1170v168.364s4.195,33.843-24.5,33.843-31.7.227-31.7.227" transform="translate(287 112)" fill="none" stroke="#222" stroke-width="3"/>
    <g id="Group_50273" data-name="Group 50273" transform="translate(568 898.763)">
      <g id="Group_50274" data-name="Group 50274">
        <g id="Group_50275" data-name="Group 50275" transform="translate(7 22.565)">
          <path id="Path_74556" data-name="Path 74556" d="M15.353,35.911H3.557c-1.024,0-.916-.047-.919.938,0,.781,0,1.562,0,2.344-.006.573-.211.773-.782.781-.391.005-.782.011-1.172,0a.621.621,0,0,1-.673-.655C0,39.147,0,38.977,0,38.808q0-10.78,0-21.56C0,17.1,0,16.961.01,16.818a.636.636,0,0,1,.628-.671,9.1,9.1,0,0,1,1.365,0c.433.032.631.3.633.784.005,1.562,0,3.125,0,4.687,0,.552,0,.552.536.423.316-.076.632-.156.949-.225A.9.9,0,0,1,5.3,22.53c.188.69.361,1.384.537,2.077.266,1.046.525,2.095.8,3.139a1.1,1.1,0,0,1-.212,1.2c-.165.159-.1.25.111.254.338.005.677-.007,1.015.006s.412-.14.337-.436c-.236-.92-.466-1.841-.7-2.761-.42-1.651-.847-3.3-1.26-4.954a1.144,1.144,0,0,1,.859-1.439,5.376,5.376,0,0,1,2.6-.345A2.662,2.662,0,0,1,11.5,21.24c.321,1.139.59,2.293.876,3.441.152.612.147.614.777.614,3.385,0,6.77.017,10.155-.008a4.449,4.449,0,0,1,3.719,1.789c.485.612.985,1.212,1.463,1.829a.673.673,0,0,0,.632.3c1.424-.119,1.606.512,1.594,1.624-.029,2.669-.009,5.338-.01,8.007a4.9,4.9,0,0,1-.012.507.61.61,0,0,1-.66.626c-.416.015-.833.013-1.25,0-.492-.012-.712-.229-.718-.729-.011-.924,0-1.849-.006-2.773,0-.514-.04-.557-.557-.557q-6.073,0-12.147,0Z" transform="translate(0 -15.205)" fill="#fff"/>
          <path id="Path_74557" data-name="Path 74557" d="M37.619,5.029a2.472,2.472,0,0,1-2.51-2.53,2.522,2.522,0,0,1,5.044-.023,2.469,2.469,0,0,1-2.534,2.553" transform="translate(-29.624 -1.603)" fill="#fff"/>
          <rect id="Rectangle_14485" data-name="Rectangle 14485" width="3.815" height="11.185" transform="translate(18.725 -3.348)" fill="#fff"/>
          <rect id="Rectangle_14486" data-name="Rectangle 14486" width="11.185" height="3.815" transform="translate(15.04 0.338)" fill="#fff"/>
        </g>
      </g>
    </g>
    <g id="Group_50276" data-name="Group 50276" transform="translate(-37.685 62.445) rotate(-3)">
      <path id="Path_74558" data-name="Path 74558" d="M682.639,817.64S711.552,813.77,731,838.68" transform="translate(287 112)" fill="none" stroke="#d5939d" stroke-width="4"/>
      <path id="Path_74559" data-name="Path 74559" d="M733.476,847.255l15.564,5.63V837.107Z" transform="translate(244.962 132.068) rotate(-2)" fill="#c78891"/>
    </g>
    <g id="Group_50277" data-name="Group 50277" transform="translate(941.353 1341.949) rotate(-120)">
      <path id="Path_74558-2" data-name="Path 74558" d="M731,817.64s-28.912-3.869-48.361,21.041" transform="translate(-677.329 -817.422)" fill="none" stroke="#d5939d" stroke-width="4"/>
      <path id="Path_74559-2" data-name="Path 74559" d="M0,5.63,15.564,0V15.778Z" transform="matrix(-0.999, -0.035, 0.035, -0.999, 15.555, 29.414)" fill="#c78891"/>
    </g>
    <g id="Group_50278" data-name="Group 50278" transform="translate(974.517 1171.387) rotate(-60)">
      <path id="Path_74558-3" data-name="Path 74558" d="M48.361,21.041S19.448,24.91,0,0" transform="translate(5.311 8.156)" fill="none" stroke="#d5939d" stroke-width="4"/>
      <path id="Path_74559-3" data-name="Path 74559" d="M0,10.148l15.564,5.63V0Z" transform="matrix(-0.999, 0.035, -0.035, -0.999, 16.106, 15.768)" fill="#c78891"/>
    </g>
    <g id="Rectangle_14487" data-name="Rectangle 14487" transform="translate(269 1438)" fill="none" stroke="#efb6bf" stroke-width="1" stroke-dasharray="4 4" opacity="0.6">
      <rect width="861" height="106" rx="10" stroke="none"/>
      <rect x="0.5" y="0.5" width="860" height="105" rx="9.5" fill="none"/>
    </g>
  </g>
</svg>
